<?xml version="1.0" standalone="no"?>
<!DOCTYPE svg PUBLIC "-//W3C//DTD SVG 20010904//EN"
 "http://www.w3.org/TR/2001/REC-SVG-20010904/DTD/svg10.dtd">
<svg version="1.0" xmlns="http://www.w3.org/2000/svg"
 width="1254.000000pt" height="1254.000000pt" viewBox="0 0 1254.000000 1254.000000"
 preserveAspectRatio="xMidYMid meet">

<g transform="translate(0.000000,1254.000000) scale(0.100000,-0.100000)"
fill="#ffffff" stroke="none">
<path d="m9575 3938 c2 -13 30 -198 60 -413 76 -527 135 -933 214 -1465 51 -344
81 -551 81 -565 0 -7 -3 -7 -8 0 -4 6 -32 23 -62 38 -30 15 -47 25 -37 23 12
-4 29 5 48 25 26 26 29 35 23 67 -10 53 -12 54 -43 22 -29 -31 -48 -40 -35
-17 4 6 -4 1 -17 -13 -13 -13 -23 -28 -21 -33 1 -5 -2 -6 -7 -3 -5 4 -12 2
-16 -3 -3 -5 3 -14 12 -20 45 -26 -10 -7 -82 29 -44 22 -70 37 -57 34 16 -4
22 -1 22 11 0 10 5 13 12 9 7 -5 9 -2 5 8 -3 9 1 25 9 36 11 16 11 22 1 30
-16 14 -42 -1 -32 -18 9 -14 -12 -30 -31 -23 -7 3 -10 12 -6 21 4 12 -3 10
-24 -8 -27 -22 -29 -26 -15 -38 9 -7 -7 -3 -35 7 -85 33 -81 51 -93 -379 -28
-940 -41 -1217 -72 -1495 -51 -467 -142 -850 -291 -1230 -41 -105 -216 -466
-242 -500 -8 -11 29 68 83 175 146 291 241 548 321 867 61 247 116 596 124
791 2 53 2 76 -1 50 -2 -27 -8 -48 -13 -48 -4 0 -6 10 -4 23 4 21 4 21 -8 -2
-10 -19 -10 -25 0 -29 6 -2 12 -11 12 -20 0 -12 -4 -11 -23 6 -13 12 -27 22
-32 22 -5 0 5 -13 23 -29 31 -29 41 -51 24 -51 -5 0 -7 -14 -6 -30 2 -27 0
-29 -14 -18 -27 20 -28 22 -9 15 9 -4 17 -2 17 2 0 17 -25 18 -48 3 -18 -12
-25 -12 -40 -1 -9 7 -14 9 -10 5 4 -5 3 -15 -2 -21 -8 -9 -4 -11 15 -7 23 4
30 -4 26 -30 0 -5 3 -8 7 -8 4 0 9 -11 10 -25 1 -14 -3 -25 -8 -25 -5 0 -6 7
-3 17 4 11 3 14 -5 9 -8 -4 -10 -2 -6 7 4 11 -2 14 -23 11 -16 -2 -19 -1 -8 2
30 9 38 21 20 28 -9 3 -13 2 -10 -4 8 -13 -21 -13 -44 0 -15 8 -18 5 -16 -15
4 -29 -26 -59 -52 -52 -13 3 -11 5 7 6 21 1 22 3 10 12 -13 9 -12 10 3 5 9 -3
17 -1 17 5 0 6 -10 10 -22 9 -39 -3 -44 -1 -56 25 -16 34 -15 40 3 25 8 -7 15
-19 15 -26 0 -21 25 -17 58 11 16 13 31 22 34 20 3 -3 5 2 5 10 0 8 -6 16 -13
19 -8 3 -11 0 -8 -8 3 -7 -2 -16 -12 -20 -14 -5 -15 -4 -4 9 10 12 10 15 -1
16 -11 0 -11 2 -1 6 10 4 10 8 1 19 -13 16 -33 19 -24 4 3 -5 0 -10 -7 -10 -8
0 -14 8 -15 18 -1 15 4 18 23 14 24 -4 33 11 14 23 -7 4 -7 12 0 24 5 10 6 21
2 25 -3 4 1 4 11 0 17 -6 24 -24 9 -24 -5 0 -9 -7 -9 -15 0 -8 5 -15 10 -15 6
0 5 -5 -1 -12 -7 -9 -6 -17 4 -26 8 -7 14 -9 15 -5 5 43 2 81 -8 98 -17 26
-16 36 2 29 8 -4 12 -10 9 -15 -3 -5 3 -6 12 -2 13 5 15 3 9 -8 -8 -12 -6 -12
8 0 17 13 16 15 -4 38 -18 19 -20 23 -6 23 9 0 19 -4 22 -10 3 -5 12 -10 18
-9 8 0 8 2 -1 6 -20 8 15 43 36 37 13 -4 13 -2 -2 10 -11 9 -24 16 -29 16 -4
0 -6 4 -3 9 3 5 -1 11 -9 15 -8 3 -17 1 -20 -4 -3 -5 -13 -6 -22 -3 -12 5 -14
3 -8 -7 5 -8 1 -18 -11 -28 -16 -12 -16 -14 -2 -9 30 10 29 -9 -2 -38 -17 -16
-30 -25 -30 -21 0 4 -7 1 -15 -8 -18 -18 -19 -33 -2 -39 7 -4 8 -6 1 -6 -12
-1 -30 17 -35 34 -2 6 -10 8 -19 7 -8 -2 -13 -2 -10 0 3 2 16 12 29 23 22 18
24 18 18 2 -6 -15 -4 -16 13 -7 23 12 34 29 25 38 -3 3 -10 0 -15 -8 -7 -11
-11 -11 -24 -1 -13 11 -14 16 -4 29 11 12 10 16 0 20 -10 3 -9 9 4 23 16 18
16 19 1 13 -17 -6 -21 -16 -18 -43 2 -7 -2 -10 -8 -6 -6 3 -11 0 -11 -8 0 -23
-29 -28 -56 -10 -20 13 -24 13 -22 2 2 -8 11 -17 21 -21 10 -4 15 -12 12 -18
-10 -16 11 -12 25 5 7 8 20 15 29 14 10 0 12 -2 3 -6 -6 -2 -9 -9 -6 -15 3 -5
-2 -8 -12 -6 -11 2 -18 -2 -17 -7 1 -6 -7 -11 -17 -11 -10 0 -16 5 -13 11 3 5
0 4 -7 -2 -16 -15 -23 -46 -9 -37 5 3 7 10 4 15 -3 5 1 6 10 3 13 -5 13 -9 -5
-24 -21 -18 -17 -32 6 -23 8 3 14 0 14 -7 0 -6 -4 -9 -9 -6 -5 3 -12 -1 -15
-10 -4 -12 -2 -15 9 -10 8 3 15 1 15 -4 0 -18 -45 -10 -60 10 -15 21 -40 27
-40 10 0 -5 5 -10 10 -10 6 0 10 -4 10 -10 0 -5 -7 -10 -15 -10 -8 0 -15 -5
-15 -11 0 -5 5 -7 12 -3 7 5 8 3 3 -6 -6 -10 -11 -9 -22 6 -11 15 -15 16 -22
5 -5 -7 -14 -11 -20 -7 -7 5 -9 1 -5 -8 4 -9 1 -16 -6 -16 -10 0 -10 -3 0 -15
7 -9 10 -18 6 -22 -3 -3 -6 -1 -6 6 0 7 -5 9 -12 5 -6 -4 -8 -3 -5 3 7 11 -28
45 -37 36 -3 -4 -6 -1 -6 6 0 9 -5 9 -21 1 -19 -11 -20 -13 -4 -30 14 -16 14
-18 1 -23 -9 -4 -15 -3 -15 1 3 20 -3 28 -21 29 -11 1 -18 -2 -15 -8 10 -15
-5 -10 -22 7 -13 12 -13 15 -2 14 31 -5 59 1 59 11 0 5 -5 7 -12 3 -7 -4 -8
-3 -4 4 4 7 2 12 -3 12 -6 0 -11 -4 -11 -10 0 -5 -5 -10 -12 -10 -8 0 -7 6 4
16 12 12 20 14 36 5 26 -14 35 -14 27 -1 -4 6 -1 18 7 27 8 10 8 14 1 10 -6
-4 -15 -2 -18 4 -5 7 0 10 11 7 10 -2 20 -12 22 -22 3 -11 0 -16 -7 -12 -6 4
-11 2 -11 -4 0 -7 8 -9 22 -5 16 6 20 4 15 -8 -7 -19 18 -43 28 -27 3 5 1 10
-5 10 -7 0 -10 7 -6 15 3 8 -2 18 -10 23 -9 5 -15 12 -15 15 3 21 -1 27 -17
27 -10 0 -19 7 -19 15 0 8 4 12 9 9 11 -7 10 3 -3 29 -9 18 -7 18 15 -5 27
-28 34 -44 14 -32 -7 4 -1 -8 12 -27 43 -61 46 -62 74 -29 26 32 26 71 0 49
-19 -15 -18 -20 3 -12 11 4 14 3 9 -5 -10 -17 -19 -15 -43 8 -15 14 -23 16
-26 7 -3 -7 -6 -4 -6 6 -1 11 -11 27 -23 38 -23 19 -23 19 -3 35 l20 17 -20
-7 c-16 -6 -18 -5 -7 5 6 7 12 20 12 29 0 9 -3 11 -8 5 -9 -13 -35 -18 -27 -5
3 5 1 10 -4 10 -6 0 -11 -7 -11 -15 0 -8 4 -15 9 -15 5 0 11 -6 14 -14 3 -7 0
-13 -6 -13 -31 1 -48 -4 -43 -12 3 -4 -6 -13 -20 -20 -15 -6 -23 -7 -19 -1 3
5 1 10 -5 10 -6 0 -9 4 -6 9 3 5 -2 8 -11 7 -9 0 -18 5 -20 12 -4 9 2 10 19 4
23 -8 76 -7 85 2 4 4 -63 76 -71 76 -1 0 -2 -9 -2 -19 0 -11 3 -18 6 -16 3 2
12 0 20 -6 11 -6 12 -9 2 -9 -7 0 -10 -4 -7 -10 3 -6 -5 -10 -19 -10 -18 0
-24 4 -20 15 4 8 -1 17 -10 21 -9 3 -13 10 -10 15 3 5 10 7 15 4 5 -4 9 3 9
14 0 14 -5 19 -15 15 -8 -4 -15 -12 -15 -20 0 -8 -9 -19 -20 -26 -24 -15 -26
-25 -5 -25 8 0 12 4 9 8 -7 12 10 19 25 10 11 -7 10 -11 -1 -21 -8 -8 -12 -26
-10 -42 3 -21 0 -28 -12 -28 -10 0 -15 -4 -12 -8 3 -5 -1 -9 -9 -9 -8 0 -12 4
-9 9 3 4 0 8 -5 8 -6 0 -11 -4 -11 -10 0 -5 -7 -10 -15 -10 -8 0 -15 -6 -15
-12 0 -9 -4 -8 -10 2 -9 13 -11 13 -21 0 -9 -13 -10 -12 -5 2 3 10 1 20 -4 23
-6 4 -10 2 -10 -4 0 -6 -11 -13 -25 -17 -14 -3 -25 -10 -25 -16 0 -5 -5 -6
-10 -3 -6 4 -7 11 -4 17 4 5 -5 3 -18 -6 -14 -9 -27 -14 -30 -10 -3 3 -9 1
-12 -5 -4 -5 3 -15 14 -21 16 -9 25 -8 38 2 10 8 13 9 9 1 -4 -6 -1 -15 7 -20
12 -7 12 -11 1 -26 -13 -18 -14 -18 -32 2 -9 12 -21 21 -26 21 -5 0 -4 -7 3
-15 9 -11 8 -19 -4 -37 -16 -22 -16 -22 -16 12 0 24 -3 31 -9 21 -6 -9 -11
-10 -15 -2 -4 6 -11 11 -17 11 -16 0 -10 -21 14 -41 l22 -20 -22 11 c-16 7
-23 7 -23 0 0 -18 -18 -11 -25 10 -8 24 -21 26 -29 4 -3 -8 -2 -13 2 -10 4 3
13 -4 20 -15 7 -11 8 -19 2 -19 -5 0 -10 5 -10 10 0 6 -4 10 -10 10 -15 0 -12
-30 3 -31 6 -1 21 -1 32 -1 17 1 17 0 3 -4 -10 -3 -18 -10 -18 -16 0 -6 -6 -6
-15 2 -10 9 -15 9 -15 1 0 -6 -5 -11 -11 -11 -6 0 -8 9 -3 22 6 19 0 16 -30
-14 -35 -35 -46 -58 -26 -58 6 0 10 -4 10 -9 0 -5 -8 -8 -17 -7 -22 1 -29 -30
-10 -48 9 -9 12 -26 9 -41 -3 -17 -7 -22 -12 -15 -5 9 -9 9 -14 1 -4 -6 -11
-9 -16 -6 -5 3 -11 1 -15 -5 -3 -6 -17 1 -31 17 -19 20 -22 29 -12 40 9 11 13
11 19 1 6 -9 9 -9 9 -1 0 6 -4 15 -10 18 -5 3 -10 11 -10 16 0 6 4 8 8 5 5 -3
9 1 9 8 0 11 -4 12 -19 3 -12 -8 -16 -18 -12 -32 4 -11 3 -17 -2 -12 -11 11
-29 -37 -44 -118 -7 -38 -15 -77 -18 -85 -3 -8 -7 -26 -9 -40 -20 -121 -163
-440 -276 -614 -32 -48 -55 -92 -51 -97 3 -5 0 -8 -8 -7 -7 2 -13 -6 -13 -17
0 -11 -6 -20 -14 -20 -8 0 -16 -6 -19 -14 -3 -9 0 -11 8 -6 9 5 11 4 6 -4 -4
-6 -11 -9 -16 -6 -12 7 -33 -22 -24 -36 4 -7 3 -9 -3 -6 -6 4 -37 -25 -69 -65
-172 -213 -524 -532 -808 -733 -705 -497 -1392 -773 -1937 -779 -75 0 -135 -4
-133 -8 8 -12 -71 23 -96 43 l-25 20 25 -12 c66 -33 349 -17 595 33 658 134
1505 612 2092 1182 506 490 749 951 822 1559 16 126 30 351 36 572 24 874 35
1144 62 1608 10 174 13 291 7 296 -18 16 -533 133 -556 125 -10 -3 -18 -1 -18
3 0 28 713 654 1075 944 326 261 829 628 862 629 7 0 15 -10 18 -22z m-3057
-743 c366 -46 757 -169 1082 -342 58 -31 118 -65 133 -75 l28 -20 -43 -37
c-23 -20 -54 -47 -68 -59 -14 -13 -96 -89 -183 -169 -166 -153 -188 -180 -166
-194 8 -5 114 -66 237 -136 204 -116 243 -143 210 -143 -7 0 -28 -15 -48 -33
-72 -68 -162 -116 -256 -137 -129 -28 -187 -26 -333 16 -69 19 -148 43 -176
53 -255 93 -639 144 -923 122 -507 -39 -948 -239 -1303 -591 -186 -184 -306
-353 -425 -595 -122 -251 -192 -503 -214 -769 -9 -110 -7 -153 10 -295 47
-404 144 -684 338 -981 97 -149 174 -241 315 -375 295 -284 722 -543 1197
-726 114 -44 158 -69 62 -35 -22 8 -42 12 -45 10 -10 -10 -244 88 -432 181
-206 101 -358 190 -490 286 -50 36 -89 58 -96 53 -7 -4 -9 -3 -5 4 7 12 -101
108 -111 99 -8 -9 -34 13 -28 23 2 4 -35 45 -83 91 -180 174 -322 368 -428
587 -36 72 -68 132 -72 132 -17 -1 -34 -18 -23 -24 14 -9 14 -26 0 -26 -16 0
-39 27 -39 47 0 10 -7 26 -15 36 -7 11 -11 26 -8 34 4 10 -4 7 -21 -8 -21 -18
-24 -26 -14 -34 32 -25 41 -44 28 -60 -17 -21 -30 -19 -30 5 0 11 5 20 10 20
6 0 2 10 -9 21 -16 17 -18 26 -9 45 6 13 15 24 20 24 4 0 8 4 8 9 0 5 -11 8
-24 7 -13 0 -22 -4 -20 -8 2 -4 0 -9 -6 -13 -5 -3 -10 -1 -10 6 0 8 -5 8 -17
-2 -15 -11 -16 -11 -6 0 6 7 9 21 6 30 -4 14 -3 14 6 1 10 -13 13 -13 26 4 12
16 12 22 2 35 -10 12 -9 13 3 6 30 -19 45 -14 20 6 -14 12 -19 17 -11 13 9 -4
19 0 28 11 7 11 13 14 13 8 0 -7 -5 -15 -11 -19 -8 -4 -7 -9 2 -15 22 -14 27
-11 22 14 -4 17 -3 19 6 7 5 -8 8 -24 5 -36 -4 -14 -1 -21 10 -21 9 0 16 5 16
10 0 21 -23 86 -29 82 -4 -2 -6 9 -5 23 2 50 -18 71 -31 32 -3 -11 -11 -20
-17 -20 -6 0 -6 6 2 15 14 17 0 21 -17 4 -8 -8 -13 -7 -18 2 -5 8 -4 10 3 5 7
-4 12 -1 12 8 0 10 -6 13 -15 10 -17 -7 -18 -13 -5 -34 5 -9 5 -19 -2 -27 -7
-9 -7 -13 1 -13 7 0 10 -4 7 -9 -4 -5 0 -12 6 -15 9 -4 8 -5 -2 -5 -29 2 -40
-1 -40 -12 0 -6 6 -9 14 -6 10 4 12 0 9 -14 -3 -10 0 -19 6 -19 6 0 11 -5 11
-11 0 -15 -27 8 -42 34 -8 16 -7 23 6 33 15 11 15 13 1 27 -20 20 -19 26 2 22
10 -1 12 0 5 2 -7 3 -10 8 -8 12 3 4 -1 8 -9 8 -8 0 -12 -3 -10 -7 2 -3 -1
-12 -6 -20 -8 -12 -12 -12 -16 -2 -2 6 -9 12 -14 12 -6 0 -7 -5 -4 -10 8 -12
-35 -29 -54 -22 -10 4 -13 1 -9 -10 7 -16 -9 -38 -26 -38 -5 0 -1 7 10 15 19
15 19 15 -1 8 -11 -3 -26 -11 -34 -17 -10 -8 -18 -5 -31 12 -10 12 -23 22 -30
22 -7 0 -6 -6 4 -15 17 -17 11 -45 -9 -45 -7 0 -16 6 -19 13 -3 6 -3 2 0 -11
4 -16 2 -23 -8 -21 -26 3 -49 -1 -45 -8 3 -5 -2 -15 -11 -23 -14 -13 -15 -12
-10 2 10 24 -3 30 -23 12 -14 -12 -16 -21 -9 -35 18 -32 -9 -32 -41 0 -17 17
-23 28 -15 25 21 -8 20 -2 -2 24 l-19 21 1 -33 c1 -19 4 -32 8 -29 5 2 8 -1 8
-7 0 -6 4 -8 10 -5 16 10 12 -61 -5 -75 -12 -10 -15 -10 -15 4 0 9 5 16 10 16
6 0 10 4 10 9 0 5 -11 9 -25 9 -14 0 -25 -5 -25 -10 0 -5 -4 -6 -10 -3 -6 3
-10 1 -10 -4 0 -6 -4 -11 -10 -11 -5 0 -9 5 -7 11 1 6 -4 14 -12 17 -9 3 -11
0 -6 -9 4 -8 -4 -1 -19 15 -14 16 -23 32 -21 37 3 4 0 11 -6 15 -7 4 -9 3 -6
-3 4 -6 0 -14 -9 -17 -10 -4 -13 -2 -8 6 5 8 2 9 -9 5 -9 -3 -23 1 -32 9 -20
20 -19 5 1 -24 9 -13 13 -26 9 -30 -3 -3 -10 -1 -14 6 -4 7 -14 11 -22 9 -8
-2 -11 -2 -6 0 13 8 7 23 -7 17 -9 -4 -13 2 -11 20 2 18 -1 23 -11 19 -8 -3
-11 -9 -8 -14 3 -5 0 -9 -5 -9 -17 0 -13 11 12 39 14 16 15 20 4 11 -15 -11
-20 -11 -27 0 -4 7 -6 20 -3 28 4 9 0 13 -12 11 -10 -2 -20 -11 -22 -19 -4
-13 -3 -13 7 0 10 13 11 13 7 -2 -3 -9 -2 -18 4 -20 5 -2 -1 -9 -13 -17 -20
-12 -21 -12 -11 0 10 12 9 18 -7 31 -10 9 -21 14 -24 11 -3 -4 -18 -8 -32 -9
-20 -2 -23 0 -14 11 7 9 8 15 1 19 -6 4 -16 -2 -23 -14 -7 -11 -17 -20 -22
-20 -4 0 -3 7 4 15 19 22 -4 18 -25 -5 -10 -11 -20 -18 -24 -16 -3 2 -15 -2
-26 -10 -10 -8 -13 -14 -7 -14 17 0 15 -25 -3 -40 -12 -10 -18 -8 -34 11 -10
13 -16 30 -13 38 3 9 1 12 -6 7 -8 -5 -12 0 -12 13 0 12 -7 21 -15 21 -8 0
-17 10 -20 23 -9 36 -12 126 -4 122 4 -3 10 2 13 11 3 8 2 13 -3 10 -5 -3 -11
5 -13 19 -4 16 -1 25 7 25 10 0 11 5 2 24 -8 16 -14 20 -19 13 -4 -6 -10 -9
-13 -5 -4 3 -7 141 -8 305 -1 164 -5 267 -8 228 -4 -38 -7 -136 -8 -216 -8
-989 449 -1938 1234 -2562 108 -85 145 -119 80 -72 -331 239 -663 608 -879
978 -527 899 -597 1993 -189 2937 447 1032 1305 1760 2353 1995 323 72 691 90
1018 50z m-171 -1848 c250 -163 469 -270 723 -351 123 -40 226 -64 485 -114
l40 -7 -1 -295 c-2 -427 -31 -678 -109 -935 -87 -285 -254 -592 -417 -766 -29
-31 -38 -39 -20 -17 57 68 182 239 183 251 1 7 1 19 0 27 0 11 1 12 5 2 4 -9
13 -3 27 20 28 47 123 238 132 266 6 22 5 23 -14 13 -16 -9 -21 -9 -21 1 0 10
-2 10 -8 1 -5 -8 -22 -11 -44 -8 -32 4 -36 2 -33 -15 3 -13 -1 -17 -11 -13 -8
3 -12 8 -10 11 3 3 1 11 -4 17 -12 15 15 29 33 18 7 -4 8 0 3 12 -5 15 -4 16
9 5 14 -12 19 -6 17 20 -1 9 42 6 57 -4 11 -7 13 -4 8 13 -4 16 -2 21 8 18 7
-3 18 0 25 6 10 9 12 9 8 -3 -3 -8 -8 -26 -12 -40 -6 -20 -5 -22 3 -8 15 23
78 216 85 258 5 34 5 34 -8 -5 -11 -32 -18 -39 -35 -38 -11 2 -21 -2 -21 -7 0
-6 -7 -10 -15 -10 -8 0 -15 5 -15 10 0 6 -5 10 -11 10 -5 0 -8 -4 -5 -8 2 -4
-5 -8 -17 -9 -12 0 -16 1 -8 4 11 5 11 7 0 14 -11 7 -11 9 -1 9 7 0 10 5 7 10
-3 6 -1 10 6 10 9 0 9 4 -1 15 -9 11 -15 12 -25 2 -7 -7 -11 -15 -8 -19 2 -5
-3 -8 -12 -8 -9 0 -13 5 -10 10 3 6 2 10 -4 10 -5 0 -13 -4 -16 -10 -8 -14
-55 -13 -55 1 0 8 -6 7 -17 -2 -17 -13 -17 -13 -2 10 9 14 22 27 30 29 12 3
12 2 0 -6 -11 -8 -9 -12 9 -22 18 -10 21 -9 15 1 -6 9 -3 11 8 6 9 -3 19 -2
22 3 4 6 0 10 -7 11 -10 0 -10 2 1 6 11 5 11 7 0 14 -11 7 -10 9 5 9 12 0 16
-5 13 -14 -3 -8 1 -17 9 -20 8 -3 13 -2 10 2 -3 5 0 9 7 9 7 0 19 2 27 4 9 3
14 -2 12 -12 -2 -12 4 -15 23 -11 14 2 25 9 25 14 0 5 -4 7 -9 4 -5 -4 -11 -1
-13 4 -2 6 -14 11 -28 12 -14 1 -35 10 -47 21 -12 10 -26 17 -31 14 -10 -7 -9
29 1 39 15 15 6 24 -12 14 -28 -15 -33 -13 -22 9 8 14 7 22 -4 31 -11 9 -15
10 -15 1 0 -7 -5 -9 -10 -6 -8 5 -7 12 2 22 8 10 14 11 16 4 2 -6 8 -11 14
-11 6 0 8 6 5 14 -6 15 14 28 36 22 6 -1 9 -1 4 1 -4 3 -5 8 -3 11 2 4 -9 7
-24 7 -16 0 -28 -4 -27 -9 1 -5 -11 -9 -26 -10 -17 -1 -36 -11 -46 -24 -16
-22 -81 -39 -81 -21 0 5 -5 9 -11 9 -6 0 -9 -6 -6 -12 2 -7 12 -13 23 -13 10
0 19 -7 19 -15 0 -8 4 -21 8 -27 13 -20 -8 -15 -28 7 -23 25 -31 25 -38 1 -6
-23 7 -48 17 -32 4 6 2 11 -5 11 -7 0 -10 3 -6 6 3 3 15 0 26 -8 12 -8 18 -18
14 -21 -6 -6 11 -11 29 -9 3 1 9 -5 12 -13 6 -18 -5 -20 -22 -3 -8 8 -15 8
-24 0 -11 -8 -17 -6 -26 9 -14 22 -37 21 -37 -2 0 -8 -7 -14 -15 -14 -8 0 -19
-3 -25 -7 -5 -3 -19 -1 -30 3 -18 9 -18 9 2 5 28 -5 39 9 15 19 -25 11 -52 13
-52 3 0 -4 -7 -8 -15 -8 -18 0 -20 -30 -2 -30 6 -1 2 -9 -10 -19 -12 -10 -19
-21 -16 -24 3 -4 -8 -5 -24 -4 -20 1 -29 6 -25 15 2 7 11 11 18 8 19 -7 45 4
38 15 -3 5 -9 7 -14 4 -5 -3 -19 -1 -31 6 -12 6 -19 7 -15 1 3 -6 1 -12 -5
-14 -6 -2 -12 -17 -12 -33 0 -17 -2 -24 -4 -17 -6 15 -33 16 -33 1 0 -5 5 -7
10 -4 6 3 10 -1 10 -9 0 -19 -16 -21 -24 -3 -5 10 -7 10 -12 0 -3 -7 -10 -13
-16 -13 -6 0 -3 9 8 21 19 21 19 21 -9 8 -15 -7 -27 -17 -27 -23 0 -6 -4 -5
-9 3 -12 19 -45 6 -37 -15 3 -8 2 -13 -3 -10 -5 3 -11 -1 -14 -8 -3 -8 -15
-14 -26 -13 -11 0 -17 5 -15 9 3 4 0 8 -6 8 -6 0 -8 5 -4 11 3 6 9 7 13 2 8
-11 31 -11 30 1 0 5 5 13 13 17 9 6 7 9 -9 9 -13 0 -23 5 -23 11 0 5 4 8 8 5
5 -3 9 1 9 8 0 13 -31 15 -43 3 -4 -4 4 -17 17 -28 17 -15 19 -20 7 -16 -10 4
-25 4 -33 1 -13 -5 -12 -11 6 -35 11 -16 17 -29 12 -29 -4 0 -2 -4 6 -9 15
-10 7 -31 -12 -31 -7 0 -6 4 3 10 14 9 7 14 -13 11 -5 -1 -6 2 -3 7 2 4 1 14
-5 22 -7 13 -9 12 -9 -1 0 -9 -7 -20 -16 -23 -8 -3 -12 -2 -9 3 3 5 1 12 -5
16 -5 3 -10 1 -10 -5 0 -6 -4 -9 -8 -6 -4 2 -9 -5 -9 -16 -1 -12 -16 -34 -33
-50 -33 -30 -46 -36 -34 -15 5 9 3 9 -7 -1 -12 -11 -12 -14 1 -22 8 -5 17 -7
20 -5 4 2 7 -2 7 -10 0 -11 -6 -10 -26 4 -24 17 -27 17 -41 3 -8 -9 -14 -23
-12 -32 2 -12 1 -13 -7 -1 -7 11 -11 10 -22 -8 -16 -24 -55 -27 -82 -6 -20 14
-51 10 -41 -6 3 -5 10 -6 16 -3 7 5 8 2 3 -6 -4 -7 -2 -16 6 -21 11 -7 11 -9
1 -9 -7 0 -15 7 -18 15 -4 8 -10 13 -14 10 -4 -3 -10 2 -14 10 -8 22 -26 18
-26 -5 0 -11 4 -20 9 -20 5 0 25 -16 46 -37 33 -33 35 -37 20 -52 -14 -14 -17
-14 -25 -1 -8 13 -10 13 -10 -2 0 -27 23 -27 52 0 30 28 46 25 29 -5 -7 -12
-10 -13 -11 -4 0 11 -3 11 -14 1 -8 -6 -12 -18 -9 -26 6 -17 -8 -18 -26 -1
-11 10 -14 10 -18 0 -10 -26 -18 -12 -18 31 0 43 0 43 23 28 37 -24 35 -8 -5
29 -20 19 -33 28 -29 21 4 -6 0 -19 -8 -28 -15 -14 -16 -14 -16 0 0 9 5 16 10
16 6 0 4 12 -4 29 -9 16 -12 31 -9 35 4 3 -1 6 -10 6 -18 0 -23 -25 -7 -35 6
-3 10 -11 10 -16 0 -6 -4 -7 -10 -4 -5 3 -10 1 -10 -4 0 -6 5 -11 11 -11 7 0
6 -8 -4 -22 -8 -13 -21 -22 -27 -20 -6 1 -9 -2 -6 -7 3 -5 17 -8 30 -7 27 3
69 -23 49 -31 -17 -6 -16 -21 2 -39 8 -9 15 -12 15 -8 0 4 3 5 6 1 4 -3 -2
-14 -12 -24 -17 -17 -18 -17 -11 1 6 14 4 17 -9 12 -11 -4 -15 -2 -11 8 6 16
-65 81 -76 70 -3 -3 -4 2 -2 13 2 10 4 18 6 18 1 0 3 10 4 23 2 21 1 22 -15 7
-11 -10 -16 -24 -12 -37 3 -14 1 -19 -6 -14 -7 4 -12 1 -12 -8 0 -16 10 -20
43 -17 9 1 17 -2 17 -8 0 -6 -7 -7 -17 -4 -9 4 -14 2 -11 -3 3 -5 -1 -16 -10
-24 -14 -13 -15 -12 -9 3 3 9 2 19 -3 22 -6 4 -10 1 -10 -4 0 -6 -6 -11 -13
-11 -8 0 -14 6 -14 14 0 9 7 12 16 9 13 -5 13 -3 4 7 -6 7 -9 20 -6 29 4 13 3
14 -5 2 -9 -13 -13 -13 -29 0 -16 13 -17 12 -5 -2 10 -14 10 -18 -5 -24 -17
-6 -17 -7 1 -21 11 -7 18 -16 15 -18 -2 -3 -15 4 -29 14 -14 11 -19 20 -12 20
6 0 12 8 12 17 0 29 -21 -1 -25 -37 -5 -40 -12 -48 -28 -30 -7 8 -8 11 -1 7 7
-4 14 -1 17 7 8 20 -4 28 -19 15 -10 -8 -18 -7 -29 5 -9 9 -12 16 -6 16 6 0
11 5 11 11 0 6 -6 9 -14 6 -8 -3 -23 3 -35 14 -19 18 -32 13 -14 -5 11 -11 12
-66 2 -66 -5 0 -9 -5 -9 -11 0 -5 5 -7 10 -4 6 3 10 -1 10 -10 0 -9 -4 -13
-10 -10 -6 3 -10 -4 -10 -17 0 -18 -2 -20 -10 -8 -8 12 -10 12 -10 1 0 -8 -3
-11 -7 -8 -3 4 2 15 11 26 12 13 14 21 6 26 -5 3 -8 10 -6 14 3 4 -1 8 -9 8
-8 0 -15 -7 -15 -14 0 -8 -5 -13 -11 -11 -18 6 -13 22 10 34 11 6 18 14 14 17
-3 4 -15 -1 -26 -10 -19 -17 -20 -17 -14 0 4 9 2 17 -3 17 -6 0 -10 -5 -10
-11 0 -5 -4 -7 -10 -4 -16 10 -11 -17 7 -37 9 -10 12 -18 7 -18 -5 0 -17 11
-26 24 -17 23 -16 25 8 51 32 35 26 42 -9 10 -31 -29 -57 -35 -36 -7 7 9 -1 4
-19 -12 -32 -29 -41 -43 -22 -31 6 3 10 2 10 -3 0 -11 -63 -8 -81 4 -7 4 -9 3
-5 -4 3 -6 -2 -16 -13 -21 -13 -7 -21 -8 -24 -1 -3 6 -4 5 -2 -2 1 -7 7 -12
13 -11 7 2 9 -5 6 -15 -4 -12 1 -10 15 7 12 13 24 22 26 19 7 -7 -27 -44 -44
-49 -8 -3 -16 -15 -18 -28 -2 -15 1 -20 9 -15 6 4 8 3 4 -4 -3 -6 -15 -10 -26
-9 -10 1 -16 5 -14 9 3 4 0 8 -6 8 -6 0 -9 4 -5 10 3 5 12 7 20 3 11 -3 13 -1
9 10 -3 9 -12 18 -19 21 -9 3 -12 0 -9 -8 3 -8 1 -17 -5 -20 -6 -4 -8 -12 -5
-19 2 -7 -6 -13 -21 -13 -14 -1 -25 2 -25 6 0 21 -25 15 -27 -6 -4 -49 -7 -54
-27 -55 -12 0 -15 -3 -8 -6 6 -2 9 -10 6 -16 -5 -8 -2 -8 7 1 16 15 33 16 23
0 -4 -7 -3 -8 4 -4 7 4 12 1 12 -7 0 -8 7 -20 15 -27 8 -7 15 -18 14 -24 0 -7
-3 -6 -6 2 -2 7 -13 16 -22 22 -23 12 -25 -17 -3 -42 14 -16 13 -18 -3 -18
-11 0 -15 -5 -11 -15 4 -11 0 -15 -12 -13 -9 2 -16 -2 -15 -7 1 -6 -7 -11 -17
-11 -12 0 -16 5 -12 16 5 13 3 13 -11 2 -9 -8 -21 -11 -28 -7 -6 4 -15 2 -19
-5 -5 -9 -9 -9 -14 -1 -4 6 -3 11 3 11 6 0 -1 16 -14 36 -28 41 -32 59 -12 51
7 -3 13 3 13 14 0 17 -2 17 -23 4 -20 -14 -23 -13 -32 4 -6 10 -7 21 -3 25 3
4 -1 4 -11 0 -9 -3 -14 -11 -11 -18 3 -6 -9 5 -26 24 l-32 35 33 -50 c44 -67
77 -106 82 -97 2 4 2 2 1 -5 -2 -7 2 -15 8 -19 7 -4 8 -3 4 4 -4 7 -2 12 4 12
7 0 9 -7 6 -16 -4 -11 18 -43 71 -102 146 -160 345 -324 603 -496 63 -42 111
-76 107 -76 -14 0 -273 176 -382 259 -132 101 -385 352 -473 471 -191 257
-318 553 -386 895 -36 185 -46 308 -53 660 -5 259 -4 312 8 322 8 6 77 23 154
38 429 80 749 210 1130 459 55 36 103 66 107 66 4 0 65 -38 135 -83z m2927
-1319 c-3 -5 -9 -6 -14 -3 -4 3 -10 0 -12 -6 -2 -7 -9 -5 -17 5 -12 14 -12 16
4 9 14 -5 17 -3 12 10 -5 14 -3 15 13 5 10 -7 16 -16 14 -20z m-48 -59 c19
-22 19 -22 -3 -10 -13 6 -23 16 -23 21 0 15 5 12 26 -11z m-525 -3 c14 8 11
-6 -5 -21 -11 -12 -13 -10 -13 13 0 15 2 21 4 14 3 -6 9 -10 14 -6z m89 -12
c0 -8 -5 -12 -10 -9 -6 4 -8 11 -5 16 9 14 15 11 15 -7z m300 -18 c0 -2 -7 -7
-16 -10 -8 -3 -12 -2 -9 4 6 10 25 14 25 6z m-463 -22 c-3 -3 -12 -4 -19 -1
-8 3 -5 6 6 6 11 1 17 -2 13 -5z m47 -10 c6 -15 4 -15 -11 -3 -15 13 -16 12
-9 -6 5 -15 4 -17 -5 -8 -11 11 -5 33 11 33 4 0 11 -7 14 -16z m444 3 c8 -10
6 -16 -9 -25 -19 -12 -19 -11 -9 8 7 13 7 20 0 20 -5 0 -10 -4 -10 -10 0 -5
-8 -10 -17 -10 -15 0 -14 2 3 15 24 18 29 18 42 2z m-231 -23 c-9 -9 -28 6
-21 18 4 6 10 6 17 -1 6 -6 8 -13 4 -17z m-201 -29 c-14 -14 -26 -22 -26 -17
0 12 41 54 47 48 3 -3 -7 -17 -21 -31z m-1471 15 c4 -6 -1 -7 -11 -3 -12 4
-15 3 -10 -5 4 -7 2 -12 -4 -12 -6 0 -8 -5 -4 -11 4 -7 10 -7 16 -1 14 14 48
3 41 -14 -3 -8 -12 -14 -20 -14 -8 0 -12 4 -9 9 4 5 -3 7 -14 4 -22 -6 -28
-21 -7 -20 6 0 26 -1 42 -2 23 -1 27 -3 15 -11 -8 -5 -11 -10 -7 -10 13 0 -20
-30 -33 -30 -6 0 -9 -4 -5 -9 3 -6 -4 -15 -15 -21 -20 -11 -21 -10 -9 12 7 13
19 29 28 36 14 10 13 11 -4 5 -11 -3 -17 -2 -13 2 5 5 -2 13 -15 19 -26 14
-33 66 -7 66 13 0 13 1 0 10 -12 8 -9 10 12 10 15 0 30 -4 33 -10z m1368 -79
c-1 -2 -9 1 -17 8 -11 9 -15 9 -19 -1 -3 -7 -5 -1 -4 14 l1 27 21 -22 c12 -12
20 -24 18 -26z m491 36 c14 -13 12 -17 -29 -47 -17 -12 -16 -10 2 11 18 19 20
28 11 37 -7 7 -9 12 -4 12 4 0 13 -6 20 -13z m-636 -21 c-7 -8 -15 -12 -17
-11 -5 6 10 25 20 25 5 0 4 -6 -3 -14z m92 -41 c0 -3 -4 -3 -10 0 -5 3 -10 1
-10 -4 0 -6 -5 -11 -11 -11 -8 0 -8 4 -1 13 9 10 7 20 -5 38 -14 22 -13 22 11
-3 14 -15 26 -30 26 -33z m395 45 c3 -6 -1 -7 -9 -4 -18 7 -21 14 -7 14 6 0
13 -4 16 -10z m-455 -10 c0 -5 -5 -10 -11 -10 -5 0 -7 5 -4 10 3 6 8 10 11 10
2 0 4 -4 4 -10z m673 -16 c-3 -8 -12 -14 -20 -14 -12 0 -13 3 -4 13 6 8 8 17
4 21 -4 4 0 4 9 1 9 -4 14 -13 11 -21z m-769 -2 c2 -4 -5 -9 -17 -9 -17 -2
-19 0 -7 7 18 12 18 12 24 2z m362 -17 c9 -7 9 -12 0 -17 -7 -5 -5 -12 9 -23
19 -16 19 -16 -3 -5 -13 6 -21 17 -19 23 2 7 -3 18 -12 25 -13 10 -13 12 -1
10 8 -2 20 -7 26 -13z m-1669 -27 c-3 -8 -6 -5 -6 6 -1 11 2 17 5 13 3 -3 4
-12 1 -19z m68 12 c4 -6 -1 -7 -11 -3 -13 5 -15 3 -9 -7 5 -9 4 -11 -4 -6 -6
4 -9 12 -6 17 8 12 22 12 30 -1z m1265 -5 c-8 -14 -37 -13 -37 2 0 8 9 13 21
11 12 -2 19 -7 16 -13z m61 6 c-8 -5 -10 -14 -6 -22 6 -11 5 -11 -5 -2 -14 12
-6 33 13 33 8 0 7 -3 -2 -9z m332 -6 c11 -7 26 -11 34 -8 12 5 12 7 1 15 -10
8 -10 9 1 6 23 -7 24 -26 2 -33 -14 -4 -30 1 -47 14 -29 23 -20 29 9 6z m-208
-23 c-3 -3 -11 0 -18 7 -9 10 -8 11 6 5 10 -3 15 -9 12 -12z m-280 -12 c3 -6
-1 -7 -9 -4 -18 7 -21 14 -7 14 6 0 13 -4 16 -10z m355 6 c0 -2 -8 -10 -17
-17 -16 -13 -17 -12 -4 4 13 16 21 21 21 13z m573 -11 c4 -8 3 -16 -1 -19 -4
-3 -9 4 -9 15 -2 23 3 25 10 4z m-2353 -5 c0 -5 -5 -10 -11 -10 -5 0 -7 5 -4
10 3 6 8 10 11 10 2 0 4 -4 4 -10z m441 0 c10 -6 19 -16 19 -22 0 -6 -6 -6
-16 3 -13 10 -17 10 -25 -2 -6 -10 -9 -11 -9 -1 0 7 -4 11 -9 7 -5 -3 -12 -1
-15 4 -4 5 2 12 11 14 10 3 19 5 21 6 2 0 12 -4 23 -9z m1289 -10 c0 -17 -26
-17 -27 1 -1 12 3 16 13 12 8 -3 14 -9 14 -13z m480 2 c-8 -3 -22 -10 -30 -16
-13 -9 -13 -9 -3 5 7 9 10 18 7 22 -3 3 4 3 17 0 16 -5 19 -8 9 -11z m-2135
-32 c-3 -4 2 -11 11 -14 9 -4 14 -9 11 -12 -8 -8 -41 18 -44 33 -2 7 4 10 12
7 8 -4 13 -10 10 -14z m303 8 c-6 -18 -28 -21 -28 -4 0 9 7 16 16 16 9 0 14
-5 12 -12z m-425 -15 c-7 -3 -13 -11 -13 -18 0 -7 -6 -15 -13 -18 -8 -3 -13 3
-13 17 0 16 6 21 26 22 14 1 19 -1 13 -3z m527 -3 c0 -5 -2 -10 -4 -10 -3 0
-8 5 -11 10 -3 6 -1 10 4 10 6 0 11 -4 11 -10z m-305 -41 c11 -16 1 -19 -13
-3 -7 8 -8 14 -3 14 5 0 13 -5 16 -11z m228 4 c-7 -2 -19 -2 -25 0 -7 3 -2 5
12 5 14 0 19 -2 13 -5z m52 -3 c3 -6 -1 -7 -9 -4 -18 7 -21 14 -7 14 6 0 13
-4 16 -10z m-351 -26 c3 -8 2 -12 -4 -9 -6 3 -10 10 -10 16 0 14 7 11 14 -7z
m-408 -21 c-7 -7 -26 7 -26 19 0 6 6 6 15 -2 9 -7 13 -15 11 -17z m1558 -18
c2 -6 -2 -12 -10 -12 -7 0 -15 6 -18 12 -2 6 2 12 10 12 7 0 15 -6 18 -12z
m208 8 c-6 -2 -10 -9 -6 -14 3 -5 0 -9 -5 -9 -12 0 -14 13 -4 23 3 4 11 7 17
6 6 0 5 -3 -2 -6z m-160 -13 c3 9 9 8 21 -5 13 -12 15 -21 7 -29 -5 -7 -7 -16
-3 -19 3 -4 1 -7 -5 -7 -7 0 -12 -5 -12 -11 0 -8 4 -8 15 1 11 10 18 9 30 -4
9 -9 12 -16 6 -16 -5 0 -13 5 -16 10 -4 7 -13 4 -24 -7 -27 -29 -59 -44 -64
-30 -2 6 -15 11 -29 10 -16 -2 -28 4 -32 14 -5 13 -4 14 9 3 20 -16 32 -5 16
14 -15 18 -6 36 16 36 9 0 14 3 10 6 -3 4 4 15 16 24 14 11 24 14 28 8 4 -7 8
-6 11 2z m118 -15 c10 -12 10 -15 -2 -15 -8 0 -15 7 -15 15 0 8 1 15 2 15 2 0
8 -7 15 -15z m1010 2 c0 -36 -33 -186 -41 -182 -4 3 -5 13 -2 23 5 13 0 11
-20 -7 -16 -15 -30 -20 -39 -15 -13 9 -18 10 -39 13 -6 0 -9 9 -7 18 2 10 -5
26 -14 35 -10 10 -18 22 -18 27 0 13 34 24 38 12 2 -6 8 -11 14 -11 6 0 8 7 4
15 -3 9 0 15 8 15 7 0 19 -7 26 -15 7 -8 17 -15 22 -15 5 0 2 7 -7 16 -28 29
-6 29 24 0 l28 -27 1 30 c0 16 -5 32 -13 35 -9 3 -12 0 -8 -10 3 -7 0 -14 -7
-14 -6 0 -8 5 -5 10 3 6 0 10 -7 10 -10 0 -10 2 1 9 8 5 12 15 9 22 -4 10 4
15 23 16 17 1 29 -3 29 -10z m-1030 -26 c7 -11 17 -18 21 -16 10 7 32 -51 26
-67 -4 -8 -6 -7 -6 4 -1 12 -6 15 -18 11 -16 -6 -16 -5 -4 11 16 19 15 20 -31
47 -14 7 -16 6 -12 -6 7 -18 -7 -20 -23 -4 -9 9 -8 15 0 25 17 19 30 17 47 -5z
m-1355 -11 c3 -6 -1 -7 -9 -4 -18 7 -21 14 -7 14 6 0 13 -4 16 -10z m1425 -16
c0 -8 4 -14 9 -14 5 0 12 -7 15 -16 8 -22 -10 -8 -34 26 -16 23 -17 28 -6 24
9 -3 16 -12 16 -20z m42 19 c-6 -3 -10 -9 -6 -14 3 -5 -1 -9 -9 -9 -22 0 -16
26 7 27 12 1 15 -1 8 -4z m295 -7 c2 -2 0 -7 -6 -11 -6 -3 -11 -1 -11 5 0 6
-4 9 -9 5 -5 -3 -12 -1 -16 4 -5 9 33 7 42 -3z m-1467 -6 c0 -5 -5 -10 -11
-10 -5 0 -7 5 -4 10 3 6 8 10 11 10 2 0 4 -4 4 -10z m1508 -17 c-6 -7 -18 -13
-27 -14 -12 0 -12 -2 -2 -6 11 -4 11 -7 0 -13 -9 -6 -10 -12 -2 -22 9 -10 6
-16 -11 -24 -17 -8 -23 -8 -23 2 0 7 5 12 10 11 5 -1 10 8 12 21 2 24 -13 30
-21 8 -7 -18 -41 -17 -41 0 0 7 3 13 6 12 23 -2 41 4 36 12 -4 6 -3 10 2 9 20
-3 44 2 39 9 -2 4 4 8 14 8 14 0 16 -3 8 -13z m-2331 -35 c0 -13 -6 -26 -12
-30 -7 -6 -5 -11 4 -17 9 -6 10 -11 2 -15 -6 -4 -11 -12 -11 -18 0 -6 3 -9 6
-5 4 3 13 -1 21 -9 19 -18 9 -31 -11 -15 -8 7 -16 8 -18 4 -3 -4 -3 -2 -2 4 2
7 -5 17 -14 22 -16 10 -16 10 1 11 19 0 23 15 7 25 -5 3 -10 1 -10 -4 0 -6 -7
-11 -16 -11 -8 0 -12 -4 -9 -10 3 -6 -1 -7 -9 -4 -9 3 -16 10 -16 16 0 5 5 6
10 3 6 -3 10 -1 10 5 0 6 4 8 10 5 5 -3 20 10 32 29 13 20 24 36 25 36 1 0 1
-10 0 -22z m1873 2 c0 -5 -7 -7 -15 -4 -8 4 -15 8 -15 10 0 2 7 4 15 4 8 0 15
-4 15 -10z m-158 -24 c5 -6 8 -7 8 -1 0 6 10 -9 21 -33 18 -38 22 -42 37 -30
15 12 16 11 3 -5 -9 -12 -17 -14 -26 -7 -6 5 -14 7 -18 4 -3 -3 -8 4 -12 15
-6 19 -17 26 -38 22 -4 -1 -3 8 3 19 6 11 7 20 3 19 -19 -3 -33 2 -33 12 0 13
42 1 52 -15z m-1770 3 c2 -2 1 -3 -1 -2 -2 2 -9 -2 -16 -7 -8 -7 -12 -5 -12 4
0 12 22 16 29 5z m1827 -15 c-6 -8 -9 -18 -5 -21 4 -4 11 -1 16 7 6 8 10 10
10 4 0 -6 -6 -16 -13 -22 -19 -16 -43 24 -26 44 6 7 15 11 21 8 5 -3 4 -12 -3
-20z m796 16 c3 -6 -1 -7 -9 -4 -18 7 -21 14 -7 14 6 0 13 -4 16 -10z m-672
-25 c-3 -9 -8 -14 -10 -11 -3 3 -2 9 2 15 9 16 15 13 8 -4z m852 -4 c-8 -14
-25 -14 -25 0 0 5 5 7 10 4 6 -3 10 -1 10 6 0 7 3 10 6 6 3 -3 3 -10 -1 -16z
m-2709 -16 c10 -26 -1 -35 -13 -10 -6 14 -7 25 -2 25 5 0 12 -7 15 -15z m1811
9 c-3 -3 -12 -4 -19 -1 -8 3 -5 6 6 6 11 1 17 -2 13 -5z m-4254 -17 c21 5 21
4 -4 -20 -26 -25 -70 -33 -66 -13 3 15 41 46 45 36 2 -4 13 -6 25 -3z m2632
-7 c-3 -5 -2 -10 3 -10 5 0 9 -6 9 -13 0 -24 -22 -15 -23 10 -1 13 2 23 8 23
5 0 6 -4 3 -10z m2030 1 c3 -5 2 -12 -3 -15 -5 -3 -9 1 -9 9 0 17 3 19 12 6z
m518 -22 c4 -16 2 -19 -10 -15 -13 5 -14 4 -3 -9 8 -10 9 -15 1 -15 -6 0 -12
3 -12 8 -8 50 -7 60 6 56 7 -3 15 -14 18 -25z m-2973 11 c0 -5 -5 -10 -11 -10
-5 0 -7 5 -4 10 3 6 8 10 11 10 2 0 4 -4 4 -10z m1898 -25 c-3 -3 -9 2 -12 12
-6 14 -5 15 5 6 7 -7 10 -15 7 -18z m1163 8 c13 -16 12 -17 -3 -4 -10 7 -18
15 -18 17 0 8 8 3 21 -13z m-5446 -33 c-4 -6 -1 -17 5 -25 9 -11 9 -15 1 -15
-6 0 -11 5 -11 10 0 6 -8 10 -17 10 -15 0 -14 2 3 15 23 17 27 18 19 5z m2116
-12 c18 -19 27 -40 12 -25 -3 4 -12 2 -19 -4 -8 -7 -14 -7 -19 1 -3 5 -1 10 5
10 8 0 8 6 0 20 -14 26 -2 26 21 -2z m752 9 c3 -7 -3 -13 -14 -13 -13 0 -15 3
-7 13 6 7 12 13 13 13 2 0 5 -6 8 -13z m2410 -1 c4 -10 1 -13 -9 -9 -15 6 -19
23 -5 23 5 0 11 -7 14 -14z m-3363 -12 c0 -8 -5 -12 -10 -9 -6 4 -8 11 -5 16
9 14 15 11 15 -7z m-2578 -6 c-5 -5 -18 -10 -30 -13 -12 -2 -27 -7 -34 -11 -6
-4 -8 -3 -4 4 3 5 3 12 -1 15 -5 2 -2 2 5 1 6 -2 12 1 12 6 0 5 14 8 30 8 18
-1 27 -5 22 -10z m521 -23 c-3 -9 -8 -14 -10 -11 -3 3 -2 9 2 15 9 16 15 13 8
-4z m2017 -19 c0 -3 -4 -8 -10 -11 -5 -3 -10 -1 -10 4 0 6 5 11 10 11 6 0 10
-2 10 -4z m-2522 -20 c-7 -8 -15 -12 -17 -11 -5 6 10 25 20 25 5 0 4 -6 -3
-14z m72 -23 c0 -10 6 -13 17 -8 15 5 15 3 -2 -13 -11 -11 -24 -17 -30 -14 -5
3 -4 7 3 10 7 2 9 8 6 14 -3 5 -14 2 -25 -8 -19 -17 -20 -17 -13 2 7 17 6 18
-12 4 -17 -14 -18 -14 -6 2 8 10 20 14 29 11 13 -5 15 -2 10 16 -4 18 -3 20 9
10 8 -6 14 -18 14 -26z m680 11 c0 -2 -9 0 -20 6 -11 6 -20 13 -20 16 0 2 9 0
20 -6 11 -6 20 -13 20 -16z m150 17 c0 -8 -54 -41 -67 -41 -1 0 -3 7 -3 15 0
8 6 12 13 9 7 -2 21 2 32 10 24 18 25 19 25 7z m1910 -6 c0 -12 -19 -12 -23 0
-4 9 -1 12 9 8 7 -3 14 -7 14 -8z m228 -10 c-3 -3 -9 2 -12 12 -6 14 -5 15 5
6 7 -7 10 -15 7 -18z m-3098 11 c0 -3 -4 -8 -10 -11 -5 -3 -10 -1 -10 4 0 6 5
11 10 11 6 0 10 -2 10 -4z m-60 -26 c9 -16 8 -18 -5 -14 -12 5 -14 2 -8 -12 6
-17 5 -17 -11 -5 -12 10 -14 16 -5 21 6 4 8 13 5 19 -4 6 -3 11 3 11 6 0 15
-9 21 -20z m2896 5 c9 -8 11 -15 6 -15 -5 0 -15 7 -22 15 -7 8 -9 15 -6 15 4
0 14 -7 22 -15z m-2591 -15 c3 -6 -1 -7 -9 -4 -18 7 -21 14 -7 14 6 0 13 -4
16 -10z m279 -6 c3 -8 2 -12 -4 -9 -6 3 -10 10 -10 16 0 14 7 11 14 -7z m2290
0 c5 -14 4 -15 -9 -4 -12 10 -15 10 -15 0 0 -8 -3 -11 -6 -7 -7 7 4 27 16 27
4 0 11 -7 14 -16z m-2367 -19 c-9 -8 -22 -15 -29 -15 -7 0 -2 9 12 20 28 21
40 19 17 -5z m4430 6 c0 -11 -5 -18 -9 -15 -4 3 -5 11 -1 19 7 21 12 19 10 -4z
m-4697 -6 c11 -13 10 -14 -4 -9 -12 5 -15 2 -10 -10 3 -9 2 -16 -4 -16 -6 0
-9 8 -7 18 2 9 4 20 4 25 1 11 7 9 21 -8z m760 11 c0 -2 -7 -7 -16 -10 -8 -3
-12 -2 -9 4 6 10 25 14 25 6z m-545 -24 c-3 -3 -11 0 -18 7 -9 10 -8 11 6 5
10 -3 15 -9 12 -12z m-291 -1 c3 -5 -3 -11 -13 -14 -12 -3 -22 1 -25 9 -6 16
29 20 38 5z m2324 -19 c2 -7 -2 -10 -12 -6 -9 3 -16 11 -16 16 0 13 23 5 28
-10z m-33 -12 c0 -8 5 -18 10 -22 6 -5 5 -8 -3 -8 -7 0 -10 -5 -7 -11 4 -6 -2
-5 -13 2 -17 11 -19 16 -9 28 9 12 9 13 0 7 -8 -4 -13 -1 -13 9 0 10 7 15 18
13 9 -2 17 -10 17 -18z m-1405 -22 c0 7 5 10 10 7 8 -5 7 -12 -2 -22 -11 -13
-14 -12 -30 7 -10 12 -18 27 -18 32 0 6 9 0 20 -13 11 -14 19 -18 20 -11z
m-905 12 c3 -6 -1 -7 -9 -4 -18 7 -21 14 -7 14 6 0 13 -4 16 -10z m4756 -17
c-12 -20 -14 -14 -5 12 4 9 9 14 11 11 3 -2 0 -13 -6 -23z m-4801 -8 c-10 -12
-10 -18 1 -32 12 -15 12 -16 -3 -10 -10 3 -18 2 -18 -2 0 -19 31 -20 47 -1 10
11 21 20 26 20 5 0 4 -7 -3 -15 -11 -13 -10 -14 6 -9 15 6 17 4 7 -6 -6 -7 -9
-20 -6 -29 5 -13 2 -12 -16 3 -18 16 -21 17 -16 3 5 -13 1 -15 -22 -13 -15 1
-36 -2 -47 -7 -25 -12 -55 15 -38 36 7 8 9 17 5 21 -4 4 -1 11 7 16 20 13 30
12 30 -1 0 -5 -4 -7 -10 -4 -5 3 -10 2 -10 -4 0 -12 19 -25 26 -18 3 3 6 12 8
20 2 15 25 47 33 47 3 0 0 -7 -7 -15z m1017 -20 c0 -8 -4 -12 -9 -9 -5 3 -6
10 -3 15 9 13 12 11 12 -6z m28 5 c3 -5 1 -10 -4 -10 -6 0 -11 5 -11 10 0 6 2
10 4 10 3 0 8 -4 11 -10z m-147 -25 c-2 -1 -14 -8 -28 -14 -22 -11 -23 -10 -8
2 10 8 15 17 11 21 -4 4 1 4 10 0 10 -3 17 -8 15 -9z m41 -16 c-15 -9 -32 -2
-24 11 3 5 13 6 21 3 12 -4 13 -8 3 -14z m62 1 c7 -16 -7 -40 -22 -40 -5 0 -9
8 -8 18 0 10 3 12 6 4 2 -6 9 -9 15 -6 5 3 2 14 -9 26 -13 15 -14 19 -3 16 8
-2 18 -10 21 -18z m-941 -60 c0 -5 -4 -10 -10 -10 -5 0 -10 5 -10 10 0 6 5 10
10 10 6 0 10 -4 10 -10z m-62 -129 c-6 -2 -14 3 -19 10 -5 8 -9 9 -9 4 0 -6 5
-16 12 -23 9 -9 9 -12 -2 -12 -21 0 -43 50 -29 66 8 10 16 7 34 -14 13 -15 19
-29 13 -31z m1202 18 c15 -28 5 -23 -15 7 -9 15 -12 23 -6 20 6 -4 16 -16 21
-27z m2640 -52 c0 -2 -10 -12 -22 -23 l-23 -19 19 23 c18 21 26 27 26 19z
m-70 -70 c0 -2 -15 -16 -32 -33 l-33 -29 29 33 c28 30 36 37 36 29z m-2425
-83 c22 -28 25 -38 15 -47 -10 -9 -11 -9 -6 0 4 7 -2 23 -13 35 -12 12 -21 26
-21 31 0 6 -9 2 -19 -7 -14 -13 -21 -14 -27 -5 -4 7 -3 10 3 6 6 -4 16 0 23 8
16 19 13 21 45 -21z m2355 23 c0 -2 -12 -14 -27 -28 l-28 -24 24 28 c23 25 31
32 31 24z m-91 -83 c-8 -9 -50 -44 -94 -77 -96 -72 -84 -56 23 30 82 66 92 72
71 47z m-2139 -89 c19 -19 30 -35 24 -35 -5 0 -22 16 -37 35 -36 45 -30 45 13
0z m1602 -253 c-4 -11 1 -13 19 -8 22 6 21 5 -3 -9 -25 -14 -31 -14 -58 0 -34
18 -40 30 -10 20 11 -3 20 -3 20 2 0 5 8 9 19 9 12 0 17 -5 13 -14z m2572
-229 c-65 -113 -248 -372 -274 -388 -5 -3 26 41 68 97 43 57 111 156 152 221
74 117 106 158 54 70z m-323 -452 c-22 -26 -48 -54 -58 -62 -10 -8 7 14 36 49
30 34 56 62 58 62 3 0 -13 -22 -36 -49z m-151 -166 c-41 -41 -77 -75 -79 -75
-3 0 28 34 69 75 41 41 77 75 79 75 3 0 -28 -34 -69 -75z m-105 -96 c-11 -17
-179 -154 -231 -188 -27 -18 -36 -22 -20 -9 124 97 224 179 235 192 15 18 26
22 16 5z m-3865 -145 c0 -3 -20 9 -45 26 -25 17 -45 33 -45 36 0 3 20 -9 45
-26 25 -17 45 -33 45 -36z m80 -50 c0 -2 -9 0 -20 6 -11 6 -20 13 -20 16 0 2
9 0 20 -6 11 -6 20 -13 20 -16z m50 -30 c0 -2 -9 0 -20 6 -11 6 -20 13 -20 16
0 2 9 0 20 -6 11 -6 20 -13 20 -16z m3240 -129 c0 -6 -217 -115 -227 -114 -6
0 214 116 225 118 1 1 2 -1 2 -4z m-2900 -45 c19 -11 31 -19 25 -19 -5 0 -26
8 -45 19 -19 11 -30 19 -25 19 6 0 26 -8 45 -19z m80 -35 c14 -8 21 -14 15
-14 -5 0 -21 6 -35 14 -14 8 -20 14 -15 14 6 0 21 -6 35 -14z m85 -36 c22 -10
29 -16 15 -13 -28 7 -80 33 -65 33 6 0 28 -9 50 -20z m105 -41 c10 -6 7 -7
-10 -2 -14 3 -32 11 -40 16 -10 6 -7 7 10 2 14 -3 32 -11 40 -16z m2320 8 c0
-7 -112 -47 -117 -43 -2 2 20 13 49 25 57 21 68 24 68 18z m-2205 -46 c13 -6
15 -9 5 -9 -8 0 -22 4 -30 9 -18 12 -2 12 25 0z m112 -36 c-3 -3 -12 -4 -19
-1 -8 3 -5 6 6 6 11 1 17 -2 13 -5z m1840 -10 c-3 -3 -12 -4 -19 -1 -8 3 -5 6
6 6 11 1 17 -2 13 -5z m-1730 -20 c-3 -3 -12 -4 -19 -1 -8 3 -5 6 6 6 11 1 17
-2 13 -5z m40 -10 c-3 -3 -12 -4 -19 -1 -8 3 -5 6 6 6 11 1 17 -2 13 -5z m90
-20 c-3 -3 -12 -4 -19 -1 -8 3 -5 6 6 6 11 1 17 -2 13 -5z m156 -31 c-7 -2
-19 -2 -25 0 -7 3 -2 5 12 5 14 0 19 -2 13 -5z m1114 1 c-3 -3 -12 -4 -19 -1
-8 3 -5 6 6 6 11 1 17 -2 13 -5z m-1060 -10 c-3 -3 -12 -4 -19 -1 -8 3 -5 6 6
6 11 1 17 -2 13 -5z m1006 -1 c-7 -2 -21 -2 -30 0 -10 3 -4 5 12 5 17 0 24 -2
18 -5z m-60 -10 c-7 -2 -21 -2 -30 0 -10 3 -4 5 12 5 17 0 24 -2 18 -5z m-190
-20 c-7 -2 -19 -2 -25 0 -7 3 -2 5 12 5 14 0 19 -2 13 -5z"/>
<path d="M9826 8285 c8 -50 14 -58 14 -19 0 16 -5 36 -11 44 -7 11 -8 4 -3
-25z"/>
<path d="M8200 8255 c0 -8 2 -15 4 -15 2 0 6 7 10 15 3 8 1 15 -4 15 -6 0 -10
-7 -10 -15z"/>
<path d="M9843 8188 c2 -25 -1 -38 -10 -38 -7 0 -10 -7 -7 -15 4 -8 10 -13 14
-10 5 3 11 -3 13 -12 3 -10 5 -2 5 17 0 19 -4 49 -9 65 -8 29 -8 28 -6 -7z"/>
<path d="M8191 8034 c0 -11 3 -14 6 -6 3 7 2 16 -1 19 -3 4 -6 -2 -5 -13z"/>
<path d="M8190 8001 c0 -6 4 -13 10 -16 6 -3 7 1 4 9 -7 18 -14 21 -14 7z"/>
<path d="M9423 7740 c0 -36 2 -50 4 -32 2 17 2 47 0 65 -2 17 -4 3 -4 -33z"/>
<path d="M9412 7400 c0 -19 2 -27 5 -17 2 9 2 25 0 35 -3 9 -5 1 -5 -18z"/>
<path d="M9411 7344 c0 -11 3 -14 6 -6 3 7 2 16 -1 19 -3 4 -6 -2 -5 -13z"/>
<path d="M9411 7294 c0 -11 3 -14 6 -6 3 7 2 16 -1 19 -3 4 -6 -2 -5 -13z"/>
<path d="M8177 7293 c-4 -3 -7 -13 -7 -22 1 -13 3 -13 11 2 11 19 8 33 -4 20z"/>
<path d="M9403 7120 c0 -30 2 -43 4 -27 2 15 2 39 0 55 -2 15 -4 2 -4 -28z"/>
<path d="M9402 7003 c-1 -34 -5 -70 -8 -80 -5 -14 -4 -15 5 -7 8 7 11 35 8 80
l-3 69 -2 -62z"/>
<path d="M9176 7002 c-3 -5 1 -9 9 -9 8 0 12 4 9 9 -3 4 -7 8 -9 8 -2 0 -6 -4
-9 -8z"/>
<path d="M9070 6961 c0 -10 7 -13 26 -10 4 0 10 -4 14 -11 5 -8 10 -7 18 3 9
11 7 13 -11 12 -12 -1 -28 2 -34 8 -9 6 -13 6 -13 -2z"/>
<path d="M9066 6922 c-3 -6 0 -13 6 -15 10 -4 10 -6 1 -6 -7 -1 -13 -6 -13
-13 0 -8 6 -6 17 5 12 12 14 20 6 28 -7 7 -13 7 -17 1z"/>
<path d="M9394 6760 c0 -63 1 -89 3 -57 2 31 2 83 0 115 -2 31 -3 5 -3 -58z"/>
<path d="M8146 6758 c-3 -13 -6 -64 -6 -114 0 -74 3 -93 16 -98 10 -4 13 -2 8
6 -14 23 -13 77 2 86 9 5 12 15 8 25 -3 9 -10 14 -15 11 -5 -3 -6 2 -3 10 3 9
9 14 13 12 4 -3 6 10 4 27 -2 18 -4 38 -5 45 -2 20 -15 14 -22 -10z"/>
<path d="M9366 6763 c-6 -14 -5 -15 5 -6 7 7 10 15 7 18 -3 3 -9 -2 -12 -12z"/>
<path d="M9142 6728 c2 -6 10 -14 16 -16 7 -2 10 2 6 12 -7 18 -28 22 -22 4z"/>
<path d="M8927 6718 c-3 -9 3 -14 14 -14 11 0 18 5 16 10 -5 16 -24 18 -30 4z"/>
<path d="M9076 6705 c24 -18 35 -19 28 -2 -2 7 -14 13 -25 14 -21 2 -21 1 -3
-12z"/>
<path d="M9059 6684 c-9 -11 -9 -15 -1 -10 7 4 12 2 12 -8 0 -10 10 -14 28
-14 17 1 29 6 29 15 0 8 -7 11 -18 8 -10 -4 -21 1 -27 10 -8 15 -10 15 -23 -1z"/>
<path d="M8535 6669 c-11 -16 -1 -19 13 -3 7 8 8 14 3 14 -5 0 -13 -5 -16 -11z"/>
<path d="M8996 6671 c2 -2 -1 -10 -7 -18 -9 -9 -8 -13 0 -13 6 0 11 5 11 10 0
6 11 8 24 6 18 -3 23 -1 20 9 -3 7 -16 12 -29 11 -13 0 -21 -3 -19 -5z"/>
<path d="M9145 6669 c7 -11 -22 -49 -37 -49 -5 0 -16 6 -24 14 -16 17 -48 11
-66 -12 -11 -13 -11 -14 1 -8 9 6 12 5 9 -5 -3 -8 2 -20 11 -26 14 -11 14 -14
1 -23 -11 -7 -12 -10 -2 -10 7 0 20 7 29 15 15 16 38 11 27 -6 -3 -5 -10 -6
-16 -3 -7 4 -8 2 -4 -5 8 -12 30 -1 48 24 4 5 6 0 5 -12 0 -12 -5 -19 -9 -17
-5 3 -11 -2 -14 -11 -4 -9 -14 -15 -23 -14 -26 3 -50 -11 -44 -27 3 -10 0 -12
-10 -9 -8 4 -17 -1 -21 -11 -5 -12 -3 -14 6 -7 7 5 19 8 26 7 6 -1 17 -2 22
-3 6 0 10 -5 10 -10 0 -4 -11 -7 -24 -6 -14 2 -27 -2 -29 -9 -4 -9 4 -12 24
-11 29 2 39 -9 17 -18 -9 -4 -8 -6 2 -6 19 -1 23 -71 4 -71 -7 0 -16 5 -19 10
-10 16 -21 12 -21 -9 0 -10 5 -17 11 -15 14 5 41 -13 32 -23 -5 -4 -12 -1 -17
7 -8 13 -10 12 -10 -2 0 -9 4 -19 9 -23 12 -7 43 24 36 36 -4 5 -2 9 3 9 5 0
9 7 9 15 0 8 -4 15 -9 15 -4 0 -8 5 -8 11 0 5 4 8 8 5 4 -2 8 6 8 20 0 13 -4
24 -9 24 -4 0 -5 5 -2 10 3 6 1 10 -5 10 -6 0 -9 4 -5 10 3 5 12 7 20 4 9 -4
13 1 11 13 -2 10 2 21 8 25 6 4 0 8 -14 8 -19 0 -21 3 -11 9 8 5 19 8 25 7 6
-2 8 -1 4 1 -18 10 -6 20 22 18 17 -1 28 0 25 3 -2 3 3 11 12 17 16 12 16 14
1 29 -9 9 -20 16 -24 16 -5 0 -3 -5 4 -12 16 -16 15 -25 -4 -32 -8 -3 -13 -2
-10 3 3 4 -3 16 -14 26 -22 20 -18 37 8 29 14 -5 15 -4 2 5 -10 7 -11 11 -2
11 22 0 27 -2 25 -10 -1 -4 10 -13 25 -19 15 -7 24 -9 19 -5 -4 4 0 18 8 31 9
13 11 23 5 23 -5 0 -10 -5 -10 -11 0 -5 -5 -7 -10 -4 -6 4 -10 3 -9 -2 4 -23
-3 -25 -17 -5 -8 12 -13 26 -10 31 3 5 -1 12 -10 15 -9 3 -12 2 -9 -5z m-75
-75 c0 -17 -22 -14 -28 4 -2 7 3 12 12 12 9 0 16 -7 16 -16z m50 -8 c0 -3 -4
-8 -10 -11 -5 -3 -10 -1 -10 4 0 6 5 11 10 11 6 0 10 -2 10 -4z m-26 -116 c-3
-2 -9 2 -14 10 -6 8 -10 11 -10 5 0 -5 -4 -3 -9 5 -16 25 0 31 19 8 10 -13 16
-25 14 -28z"/>
<path d="M8881 6627 c-8 -10 -7 -14 2 -14 8 0 14 6 14 14 0 7 -1 13 -2 13 -2
0 -8 -6 -14 -13z"/>
<path d="M9383 6525 c0 -44 2 -61 4 -37 2 23 2 59 0 80 -2 20 -4 1 -4 -43z"/>
<path d="M8970 6576 c0 -3 9 -10 20 -16 11 -6 20 -8 20 -6 0 3 -9 10 -20 16
-11 6 -20 8 -20 6z"/>
<path d="M9000 6525 c-7 -9 -10 -18 -6 -22 3 -3 6 -1 6 6 0 7 4 10 8 7 5 -3 9
1 9 9 0 19 -2 19 -17 0z"/>
<path d="M8782 6504 c-10 -11 -11 -18 -3 -28 9 -10 8 -15 -4 -20 -8 -3 -15 0
-15 6 0 9 -37 48 -47 48 -1 0 -2 -6 0 -12 1 -7 -9 -14 -22 -16 -17 -3 -21 0
-15 10 4 7 -5 2 -19 -11 -27 -25 -35 -37 -17 -26 6 3 10 -2 10 -12 0 -15 2
-16 10 -3 6 9 5 17 -2 21 -7 4 -7 9 1 13 6 4 11 3 11 -2 0 -4 9 -18 20 -30 12
-12 16 -22 10 -22 -5 0 -10 -5 -10 -11 0 -5 5 -7 10 -4 6 3 10 0 10 -8 0 -7 7
-14 15 -14 11 0 12 3 3 14 -19 23 8 42 29 20 12 -11 13 -17 5 -17 -7 0 -10 -5
-6 -11 4 -8 9 -8 17 0 8 8 8 14 -1 23 -15 15 -16 31 0 22 7 -4 8 -3 4 4 -5 8
0 12 14 12 18 0 19 -3 9 -21 -8 -15 -8 -19 0 -15 6 4 11 3 11 -3 0 -5 -6 -12
-12 -14 -7 -3 -3 -6 10 -6 12 -1 22 -6 22 -12 0 -5 -5 -7 -12 -3 -6 4 -8 3 -4
-4 9 -15 -12 -26 -27 -13 -9 7 -17 7 -27 -1 -12 -8 -12 -9 2 -4 10 3 20 1 23
-4 4 -6 1 -10 -4 -10 -6 0 -11 -5 -11 -10 0 -7 6 -7 19 0 14 7 20 7 23 -1 3
-8 10 -5 22 6 14 14 15 20 4 26 -11 7 -6 12 12 11 3 0 10 10 16 22 8 17 8 23
-2 23 -7 0 -11 -4 -8 -8 2 -4 -1 -11 -7 -15 -15 -9 -40 23 -33 41 3 7 0 16 -5
20 -6 3 -9 11 -5 16 3 5 2 9 -3 8 -20 -3 -25 2 -13 16 17 20 9 27 -8 9z m-42
-39 c4 3 10 -2 13 -9 4 -10 0 -14 -13 -13 -10 1 -16 5 -13 11 4 5 -1 7 -12 2
-16 -6 -16 -4 -4 10 8 10 15 12 17 5 2 -6 7 -9 12 -6z m90 -115 c0 -5 -5 -10
-11 -10 -5 0 -7 5 -4 10 3 6 8 10 11 10 2 0 4 -4 4 -10z"/>
<path d="M8828 6493 c6 -2 18 -2 25 0 6 3 1 5 -13 5 -14 0 -19 -2 -12 -5z"/>
<path d="M9337 6486 c-3 -8 1 -17 10 -20 23 -9 28 1 10 18 -13 13 -16 13 -20
2z"/>
<path d="M8947 6469 c7 -7 15 -10 18 -7 3 3 -2 9 -12 12 -14 6 -15 5 -6 -5z"/>
<path d="M8875 6460 c-4 -6 -11 -8 -16 -5 -5 4 -9 -2 -9 -11 0 -16 1 -16 20 1
11 10 20 20 20 22 0 7 -9 3 -15 -7z"/>
<path d="M9337 6447 c-3 -8 3 -14 15 -14 16 -2 17 1 8 13 -15 17 -17 17 -23 1z"/>
<path d="M8610 6439 c0 -5 -4 -7 -10 -4 -5 3 -10 0 -10 -8 0 -8 6 -17 14 -20
9 -4 14 2 14 19 0 13 -2 24 -4 24 -2 0 -4 -5 -4 -11z"/>
<path d="M8631 6433 c-1 -6 4 -15 9 -18 6 -3 10 -11 10 -16 0 -6 -5 -7 -10 -4
-6 4 -9 1 -8 -7 2 -7 -4 -12 -13 -12 -11 1 -15 -6 -13 -23 1 -14 6 -28 10 -31
4 -4 4 1 1 11 -7 19 3 23 19 7 7 -7 11 -6 11 5 0 8 -4 15 -9 15 -5 0 -6 5 -3
10 4 6 11 7 17 4 7 -4 8 -2 4 4 -3 6 3 20 15 30 13 13 17 22 10 27 -6 3 -11 1
-11 -4 0 -15 -27 -14 -33 2 -4 9 -6 9 -6 0z"/>
<path d="M9146 6425 c4 -8 8 -15 10 -15 2 0 4 7 4 15 0 8 -4 15 -10 15 -5 0
-7 -7 -4 -15z"/>
<path d="M8130 6406 c0 -15 18 -31 26 -23 7 7 -7 37 -17 37 -5 0 -9 -6 -9 -14z"/>
<path d="M9294 6413 c3 -6 -4 -19 -16 -27 -12 -9 -18 -16 -12 -16 6 0 19 6 30
14 16 13 17 17 5 28 -8 8 -11 8 -7 1z"/>
<path d="M9373 6355 c0 -38 2 -53 4 -32 2 20 2 52 0 70 -2 17 -4 1 -4 -38z"/>
<path d="M9160 6400 c-9 -6 -10 -10 -3 -10 6 0 15 5 18 10 8 12 4 12 -15 0z"/>
<path d="M9019 6383 c-13 -17 -13 -17 6 -3 11 8 22 16 24 17 2 2 0 3 -6 3 -6
0 -17 -8 -24 -17z"/>
<path d="M9172 6357 c-7 -8 -5 -18 5 -32 15 -19 15 -19 9 7 -5 22 -3 26 9 22
8 -4 15 -4 15 -1 0 12 -29 15 -38 4z"/>
<path d="M8132 6333 c1 -5 -2 -42 -5 -83 -17 -181 -17 -180 3 -180 14 0 18 5
13 17 -4 10 -2 14 5 9 6 -3 14 -1 18 5 4 8 3 9 -5 5 -8 -5 -11 2 -9 26 1 19
-1 39 -5 45 -8 12 31 66 42 59 4 -3 8 1 8 9 0 8 -4 12 -8 9 -11 -6 -40 26 -33
37 7 12 -5 49 -17 49 -5 0 -8 -3 -7 -7z"/>
<path d="M9140 6331 c0 -5 5 -13 11 -17 8 -4 7 -9 -2 -15 -10 -6 -10 -9 -2 -9
20 0 25 19 9 36 -9 8 -16 11 -16 5z"/>
<path d="M8573 6306 c0 -7 6 -13 14 -13 7 0 13 4 13 8 0 4 -6 9 -13 12 -8 3
-14 0 -14 -7z"/>
<path d="M8550 6264 c0 -8 -4 -13 -8 -10 -5 3 -9 -1 -9 -9 0 -8 4 -12 9 -9 4
3 8 -3 8 -12 0 -15 3 -15 23 4 13 12 27 22 32 22 4 0 -2 -9 -15 -20 -32 -27
-20 -36 13 -9 16 12 27 16 27 9 0 -10 4 -9 15 0 8 7 15 18 14 24 0 7 -2 6 -6
-1 -2 -7 -9 -13 -14 -13 -4 0 -7 6 -5 13 1 6 1 8 -2 4 -2 -4 -16 0 -30 9 -15
9 -24 13 -20 9 4 -4 1 -14 -7 -21 -20 -20 -27 -17 -15 6 7 14 7 20 0 20 -5 0
-10 -7 -10 -16z"/>
<path d="M8730 6249 c0 -5 5 -7 10 -4 6 3 10 8 10 11 0 2 -4 4 -10 4 -5 0 -10
-5 -10 -11z"/>
<path d="M8490 6244 c0 -3 7 -12 15 -20 13 -13 15 -13 15 -1 0 8 -7 17 -15 21
-8 3 -15 3 -15 0z"/>
<path d="M8982 6228 c-15 -15 -16 -38 -2 -38 6 0 10 -5 10 -11 0 -5 -6 -7 -12
-3 -9 5 -9 2 1 -9 7 -9 17 -17 21 -17 11 0 4 44 -8 48 -7 2 -12 8 -12 13 0 6
5 7 12 3 6 -4 8 -3 4 4 -3 5 0 13 6 15 7 3 8 6 3 6 -6 1 -16 -4 -23 -11z"/>
<path d="M9276 6225 c-11 -8 -15 -15 -9 -15 6 0 16 7 23 15 16 19 11 19 -14 0z"/>
<path d="M8177 6187 c-3 -8 0 -14 7 -14 7 0 13 6 13 14 0 7 -4 13 -8 13 -4 0
-9 -6 -12 -13z"/>
<path d="M8205 6151 c-3 -5 -2 -12 3 -15 5 -3 9 1 9 9 0 17 -3 19 -12 6z"/>
<path d="M8450 6125 c0 -8 4 -15 10 -15 5 0 7 7 4 15 -4 8 -8 15 -10 15 -2 0
-4 -7 -4 -15z"/>
<path d="M8930 6129 c0 -5 5 -7 10 -4 6 3 10 8 10 11 0 2 -4 4 -10 4 -5 0 -10
-5 -10 -11z"/>
<path d="M9229 6138 c-5 -17 -4 -48 2 -48 13 0 20 18 9 25 -6 4 -8 11 -5 16 4
5 4 9 1 9 -3 0 -6 -1 -7 -2z"/>
<path d="M8205 6047 c-14 -17 -18 -40 -6 -33 5 4 11 0 14 -6 2 -7 4 2 5 20 1
36 1 36 -13 19z"/>
<path d="M8246 6047 c3 -10 9 -15 12 -12 3 3 0 11 -7 18 -10 9 -11 8 -5 -6z"/>
<path d="M9165 6020 c-3 -5 -1 -10 4 -10 6 0 11 5 11 10 0 6 -2 10 -4 10 -3 0
-8 -4 -11 -10z"/>
<path d="M8190 5951 c0 -7 -7 -11 -14 -8 -10 4 -13 1 -9 -9 5 -14 7 -14 21 0
9 9 13 19 9 22 -4 4 -7 2 -7 -5z"/>
<path d="M8166 5885 c3 -8 10 -12 15 -9 13 8 11 -10 -3 -25 -11 -11 -9 -11 9
0 24 14 22 23 -7 39 -16 8 -18 8 -14 -5z"/>
<path d="M8151 5864 c0 -11 3 -14 6 -6 3 7 2 16 -1 19 -3 4 -6 -2 -5 -13z"/>
<path d="M2922 6475 c0 -16 2 -22 5 -12 2 9 2 23 0 30 -3 6 -5 -1 -5 -18z"/>
<path d="M3259 6098 c15 -20 2 -25 -17 -6 -9 9 -9 5 0 -15 15 -32 24 -34 31
-7 3 11 -2 25 -12 32 -14 12 -15 11 -2 -4z"/>
<path d="M3186 6005 c-3 -9 -12 -12 -22 -8 -12 4 -15 2 -12 -8 8 -25 44 -19
46 7 2 27 -3 31 -12 9z"/>
<path d="M3113 5988 c-4 -7 -8 -17 -8 -23 0 -5 -9 -9 -20 -7 -20 4 -20 3 0
-12 16 -13 17 -17 6 -25 -7 -5 -13 -20 -13 -35 0 -14 -5 -26 -10 -26 -5 0 -6
5 -3 10 3 6 1 10 -5 10 -7 0 -8 6 -1 18 7 14 6 19 -4 19 -10 0 -14 -10 -12
-33 1 -17 5 -30 9 -28 4 2 10 0 13 -6 5 -8 11 -8 20 0 8 7 15 7 19 1 3 -5 3
-11 -1 -14 -5 -2 -2 -2 4 -1 7 2 17 -5 22 -14 6 -9 11 -13 11 -9 0 4 9 3 19
-3 13 -7 22 -7 26 0 5 9 -7 14 -26 12 -4 -1 -6 6 -5 16 0 10 -6 17 -16 17 -10
0 -25 8 -35 18 -16 16 -16 17 -2 12 10 -4 20 -2 24 4 3 6 -1 11 -9 11 -9 0
-16 4 -16 10 0 5 8 7 18 4 14 -5 15 -4 2 5 -8 6 -10 11 -5 11 6 0 4 4 -3 8 -8
6 -2 9 18 9 20 0 26 -3 18 -9 -7 -4 -9 -8 -3 -8 5 0 4 -5 -2 -11 -6 -6 -9 -18
-6 -25 3 -8 0 -14 -6 -14 -6 0 -11 -5 -11 -12 0 -9 3 -9 11 -1 6 6 19 9 28 6
10 -3 12 -2 6 4 -13 10 -13 39 0 36 6 -1 11 9 11 22 2 24 -20 40 -38 28 -7 -3
-8 -1 -4 5 4 7 1 12 -6 12 -9 0 -9 3 2 10 9 6 10 10 3 10 -6 0 -15 -6 -20 -12z
m37 -142 c0 -3 -4 -8 -10 -11 -5 -3 -10 -1 -10 4 0 6 5 11 10 11 6 0 10 -2 10
-4z"/>
<path d="M3057 5979 c7 -7 15 -10 18 -7 3 3 -2 9 -12 12 -14 6 -15 5 -6 -5z"/>
<path d="M3186 5905 c-13 -10 -15 -15 -6 -15 9 0 8 -6 -5 -20 -11 -12 -13 -20
-6 -20 7 0 9 -5 5 -12 -4 -6 -3 -8 4 -4 6 3 17 0 24 -7 10 -12 15 -12 26 0 7
7 17 11 21 9 4 -3 8 1 8 8 0 17 -25 16 -31 -1 -3 -8 -10 -11 -16 -8 -6 4 -7
11 -4 17 9 14 13 68 5 68 -3 0 -15 -7 -25 -15z"/>
<path d="M3497 5886 c-10 -8 -14 -16 -10 -19 5 -3 14 3 21 14 14 22 13 23 -11
5z"/>
<path d="M4038 5888 c8 -10 10 -23 6 -30 -6 -9 -3 -9 9 1 10 8 16 14 15 15 -2
1 -12 8 -23 16 -18 14 -19 14 -7 -2z"/>
<path d="M3580 5840 c-14 -9 -5 -30 13 -29 9 0 8 2 -1 6 -6 2 -10 9 -7 13 3 5
12 7 20 3 8 -3 15 -3 15 0 0 10 -27 15 -40 7z"/>
<path d="M3411 5834 c-1 -5 8 -20 19 -32 12 -12 16 -22 10 -22 -5 0 -10 -7
-10 -16 0 -8 -4 -12 -10 -9 -5 3 -10 -1 -10 -9 0 -17 -83 -70 -88 -56 -2 5
-10 3 -19 -5 -11 -12 -12 -19 -4 -29 8 -10 5 -16 -14 -26 -13 -7 -22 -17 -19
-22 3 -5 19 3 36 17 16 14 34 25 40 25 7 0 6 5 -1 14 -9 11 -8 15 4 20 9 3 13
2 10 -4 -3 -6 -1 -10 6 -10 7 0 -2 -14 -19 -31 -18 -17 -32 -36 -32 -42 0 -6
9 -1 20 11 12 12 26 22 32 22 6 0 2 -10 -10 -23 -16 -17 -19 -26 -11 -34 13
-13 42 -6 34 8 -3 4 -13 5 -23 2 -15 -6 -15 -5 -3 10 7 9 26 17 40 17 18 0 39
12 61 35 18 19 36 32 40 30 4 -2 7 2 7 9 0 8 -6 12 -14 9 -9 -3 -11 0 -7 10 8
21 -12 30 -29 12 -13 -12 -17 -12 -26 -1 -8 10 -9 16 -1 21 5 3 10 1 10 -5 0
-6 5 -8 11 -4 8 4 8 9 1 13 -12 7 0 33 14 30 21 -4 24 2 10 16 -8 9 -13 22
-10 29 3 8 0 17 -7 22 -8 4 -10 3 -5 -4 4 -7 1 -12 -8 -12 -8 0 -17 6 -19 13
-3 6 -6 7 -6 1z m-16 -148 c0 -18 -3 -22 -13 -14 -9 8 -9 14 -1 24 15 18 14
18 14 -10z m75 -7 c0 -5 -4 -7 -10 -4 -5 3 -10 1 -10 -5 0 -15 -41 -49 -58
-50 -7 0 -11 4 -8 9 4 5 0 12 -6 15 -9 4 -8 5 2 5 37 -3 51 2 44 13 -4 6 -3 8
3 5 6 -4 13 0 17 8 6 17 26 20 26 4z m-150 -9 c0 -5 -5 -10 -11 -10 -5 0 -7 5
-4 10 3 6 8 10 11 10 2 0 4 -4 4 -10z"/>
<path d="M3955 5826 c-19 -14 -19 -15 8 -12 15 1 30 6 35 11 4 4 2 5 -5 2 -6
-4 -13 -2 -15 3 -2 7 -11 5 -23 -4z"/>
<path d="M3067 5823 c-10 -9 -9 -33 1 -33 4 0 8 9 9 20 2 21 0 24 -10 13z"/>
<path d="M3525 5820 c-3 -5 -1 -10 4 -10 6 0 11 5 11 10 0 6 -2 10 -4 10 -3 0
-8 -4 -11 -10z"/>
<path d="M3340 5805 c-19 -22 -8 -25 13 -3 9 10 13 18 8 18 -5 0 -14 -7 -21
-15z"/>
<path d="M3296 5803 c-24 -6 -47 -28 -39 -37 9 -8 23 -8 22 2 -3 18 2 26 9 15
6 -9 11 -7 20 7 7 11 11 19 10 19 -2 -1 -12 -4 -22 -6z"/>
<path d="M3120 5791 c0 -6 4 -13 10 -16 6 -3 7 1 4 9 -7 18 -14 21 -14 7z"/>
<path d="M3215 5791 c-6 -11 13 -26 22 -17 4 3 1 6 -6 6 -7 0 -9 5 -6 10 3 6
4 10 1 10 -3 0 -7 -4 -11 -9z"/>
<path d="M3393 5787 c0 -8 6 -14 14 -14 7 0 13 6 13 14 0 7 -6 13 -13 13 -8 0
-14 -6 -14 -13z"/>
<path d="M3156 5771 c-3 -5 1 -11 9 -14 9 -4 12 -1 8 9 -6 16 -10 17 -17 5z"/>
<path d="M3503 5766 c3 -7 0 -20 -6 -27 -10 -11 -9 -11 5 0 15 11 15 41 1 41
-3 0 -3 -6 0 -14z"/>
<path d="M3945 5759 c1 -10 4 -21 8 -24 4 -3 5 -2 2 2 -3 3 0 12 5 18 7 9 6
14 -3 18 -9 3 -13 -2 -12 -14z"/>
<path d="M3321 5750 c-13 -11 -20 -20 -16 -20 4 0 3 -6 -3 -12 -8 -10 -4 -13
14 -13 13 0 24 3 24 8 0 4 -4 7 -10 7 -5 0 -10 5 -10 11 0 6 9 8 23 4 17 -5
19 -4 7 4 -12 9 -11 11 8 11 13 0 20 4 17 10 -9 15 -27 12 -54 -10z"/>
<path d="M3250 5740 c0 -5 5 -10 11 -10 5 0 7 5 4 10 -3 6 -8 10 -11 10 -2 0
-4 -4 -4 -10z"/>
<path d="M3250 5709 c0 -5 5 -7 10 -4 6 3 10 8 10 11 0 2 -4 4 -10 4 -5 0 -10
-5 -10 -11z"/>
<path d="M3850 5712 c0 -5 7 -15 15 -22 8 -7 15 -9 15 -6 0 4 -7 14 -15 22 -8
9 -15 11 -15 6z"/>
<path d="M3745 5701 c-16 -7 -13 -9 17 -12 29 -4 35 -2 26 8 -12 15 -15 15
-43 4z"/>
<path d="M3625 5691 c-9 -15 15 -25 28 -12 9 9 7 10 -7 5 -13 -5 -17 -4 -12 4
4 7 5 12 2 12 -3 0 -7 -4 -11 -9z"/>
<path d="M3670 5685 c0 -8 5 -15 10 -15 6 0 10 -5 10 -11 0 -5 -4 -7 -10 -4
-5 3 -10 -2 -10 -11 0 -15 2 -16 18 -2 9 9 23 13 30 11 7 -3 10 1 6 11 -3 8
-12 12 -20 9 -8 -3 -14 1 -14 11 0 9 -4 16 -10 16 -5 0 -10 -7 -10 -15z"/>
<path d="M2950 5679 c0 -5 5 -7 10 -4 6 3 10 8 10 11 0 2 -4 4 -10 4 -5 0 -10
-5 -10 -11z"/>
<path d="M3107 5669 c-18 -10 -18 -12 -1 -30 19 -21 6 -27 -15 -6 -10 10 -11
8 -5 -7 6 -15 4 -18 -9 -13 -10 4 -16 2 -14 -6 1 -7 -6 -11 -15 -11 -23 2 -14
-12 12 -19 11 -3 18 -2 15 3 -8 13 24 33 44 27 15 -3 19 0 18 14 -1 11 -7 19
-14 19 -16 0 -17 12 -1 28 15 15 9 15 -15 1z"/>
<path d="M3509 5663 c-13 -16 -12 -17 4 -4 9 7 17 15 17 17 0 8 -8 3 -21 -13z"/>
<path d="M3643 5653 c-17 -6 -16 -20 1 -26 10 -4 14 0 13 14 -1 10 -1 19 -2
18 0 0 -6 -3 -12 -6z"/>
<path d="M3744 5646 c4 -13 2 -17 -8 -13 -11 4 -13 1 -9 -10 5 -12 3 -14 -8
-8 -12 7 -12 6 1 -11 22 -29 24 -30 16 -10 -4 13 -2 17 7 13 10 -4 13 2 11 20
-1 14 -6 28 -10 31 -4 4 -4 -1 0 -12z"/>
<path d="M3449 5624 c-16 -17 -18 -23 -7 -19 9 4 19 13 22 21 3 9 11 12 17 8
8 -4 9 -3 5 4 -9 16 -9 16 -37 -14z"/>
<path d="M3165 5630 c3 -5 8 -10 11 -10 2 0 4 5 4 10 0 6 -5 10 -11 10 -5 0
-7 -4 -4 -10z"/>
<path d="M3530 5628 c0 -4 4 -8 9 -8 6 0 12 4 15 8 3 5 -1 9 -9 9 -8 0 -15 -4
-15 -9z"/>
<path d="M3195 5610 c-3 -6 1 -7 9 -4 18 7 21 14 7 14 -6 0 -13 -4 -16 -10z"/>
<path d="M3580 5611 c0 -6 4 -12 8 -15 5 -3 9 1 9 9 0 8 -4 15 -9 15 -4 0 -8
-4 -8 -9z"/>
<path d="M3830 5602 c0 -12 3 -12 15 -2 8 7 15 13 15 15 0 1 -7 2 -15 2 -8 0
-15 -7 -15 -15z"/>
<path d="M3530 5584 c0 -8 5 -12 10 -9 6 3 10 10 10 16 0 5 -4 9 -10 9 -5 0
-10 -7 -10 -16z"/>
<path d="M3394 5569 c-3 -6 -3 -13 0 -16 3 -4 6 -1 6 5 0 7 5 12 11 12 6 0 9
-7 5 -15 -8 -21 1 -19 13 3 7 14 6 18 -10 19 -10 1 -21 -3 -25 -8z"/>
<path d="M3636 5563 c4 -17 -13 -26 -19 -11 -2 7 -7 10 -11 6 -8 -7 15 -48 26
-48 5 0 8 9 8 20 0 11 5 20 10 20 6 0 10 5 10 11 0 5 -4 8 -9 5 -5 -4 -11 -3
-14 1 -2 5 -2 3 -1 -4z"/>
<path d="M3680 5570 c-13 -9 -13 -11 0 -19 8 -5 19 -7 24 -4 6 4 5 8 -2 11 -7
2 -10 8 -6 13 7 11 3 11 -16 -1z"/>
<path d="M3037 5559 c7 -7 15 -10 18 -7 3 3 -2 9 -12 12 -14 6 -15 5 -6 -5z"/>
<path d="M3542 5562 c-7 -5 -10 -15 -7 -24 3 -8 -1 -21 -10 -28 -14 -12 -18
-12 -25 0 -4 7 -7 18 -6 24 2 6 1 8 -1 4 -3 -5 -12 -8 -21 -9 -14 0 -12 -3 6
-16 24 -17 30 -38 8 -30 -10 4 -13 1 -9 -8 3 -8 9 -12 14 -9 6 3 17 0 25 -7
12 -10 18 -9 30 3 13 13 13 15 0 15 -8 0 -13 -4 -10 -9 3 -4 1 -8 -4 -8 -22 0
-20 31 2 45 14 10 24 25 24 40 0 14 -1 25 -2 25 0 0 -7 -4 -14 -8z"/>
<path d="M3015 5530 c-3 -5 -2 -10 4 -10 5 0 13 5 16 10 3 6 2 10 -4 10 -5 0
-13 -4 -16 -10z"/>
<path d="M3397 5519 c7 -7 15 -10 18 -7 3 3 -2 9 -12 12 -14 6 -15 5 -6 -5z"/>
<path d="M3630 5485 c0 -8 4 -15 10 -15 5 0 7 7 4 15 -4 8 -8 15 -10 15 -2 0
-4 -7 -4 -15z"/>
<path d="M4095 5390 c-3 -5 -1 -10 4 -10 6 0 11 5 11 10 0 6 -2 10 -4 10 -3 0
-8 -4 -11 -10z"/>
<path d="M7461 7126 c2 -2 22 -6 44 -9 28 -5 34 -4 20 3 -19 8 -73 14 -64 6z"/>
<path d="M7550 6380 c-1 -14 -2 -28 -1 -32 0 -5 -7 -8 -16 -8 -14 0 -15 -2 -4
-9 10 -7 12 -23 6 -72 -4 -35 -5 -62 -2 -59 9 8 29 178 24 192 -3 7 -6 2 -7
-12z"/>
<path d="M7300 6261 c0 -8 -8 -10 -22 -6 -21 5 -21 5 -5 -6 20 -11 48 3 34 18
-4 3 -7 1 -7 -6z"/>
<path d="M7135 6211 c-3 -6 -1 -11 5 -11 7 0 10 -7 7 -14 -4 -10 -1 -13 9 -9
12 4 12 8 2 22 -7 9 -13 17 -14 19 -1 2 -5 -1 -9 -7z"/>
<path d="M7047 6162 c-23 -24 -24 -28 -8 -28 12 0 17 5 13 15 -4 10 -1 13 9 9
10 -4 15 1 15 13 0 11 -1 19 -1 19 -1 0 -13 -13 -28 -28z"/>
<path d="M7314 6183 c3 -6 2 -14 -4 -18 -6 -4 -4 -12 6 -22 12 -13 13 -17 2
-24 -10 -7 -8 -13 11 -31 23 -23 23 -23 12 -1 -15 30 -14 36 5 29 15 -6 15 -4
3 10 -7 9 -14 23 -15 31 -2 9 -8 21 -15 27 -9 8 -10 8 -5 -1z"/>
<path d="M7516 6142 c-4 -28 -11 -50 -15 -47 -5 2 -6 -8 -3 -23 5 -23 8 -19
19 28 7 30 12 64 10 75 -2 11 -7 -4 -11 -33z"/>
<path d="M6957 6139 c7 -7 15 -10 18 -7 3 3 -2 9 -12 12 -14 6 -15 5 -6 -5z"/>
<path d="M7382 6131 c-11 -7 -11 -9 0 -14 9 -3 15 1 15 9 0 8 -1 14 -1 14 -1
0 -7 -4 -14 -9z"/>
<path d="M6980 6110 c0 -5 -6 -10 -14 -10 -7 0 -20 -8 -27 -17 -11 -15 -11
-16 0 -6 7 6 19 9 26 6 8 -2 18 5 25 16 7 14 7 21 0 21 -5 0 -10 -4 -10 -10z"/>
<path d="M7013 6093 c-6 -13 -7 -20 -2 -17 5 3 12 -2 15 -10 3 -9 10 -16 15
-16 6 0 5 9 -1 20 -9 16 -8 18 5 14 8 -4 15 -1 15 5 0 6 -5 11 -11 11 -5 0 -8
4 -5 8 3 5 -1 9 -7 9 -7 0 -18 -11 -24 -24z"/>
<path d="M7360 6091 c0 -6 4 -12 8 -15 5 -3 9 1 9 9 0 8 -4 15 -9 15 -4 0 -8
-4 -8 -9z"/>
<path d="M7442 6086 c7 -8 15 -12 17 -11 5 6 -10 25 -20 25 -5 0 -4 -6 3 -14z"/>
<path d="M7096 6081 c-3 -5 1 -11 9 -14 9 -4 12 -1 8 9 -6 16 -10 17 -17 5z"/>
<path d="M4901 6064 c0 -11 3 -14 6 -6 3 7 2 16 -1 19 -3 4 -6 -2 -5 -13z"/>
<path d="M6857 6065 c2 -7 10 -12 17 -12 7 0 13 5 13 12 0 6 -8 11 -18 11 -9
0 -15 -5 -12 -11z"/>
<path d="M6820 6059 c-11 -8 -12 -12 -2 -16 6 -2 9 -10 5 -16 -3 -7 -2 -9 2
-4 7 5 16 48 11 47 -1 0 -8 -5 -16 -11z"/>
<path d="M6725 6010 c-3 -6 1 -7 9 -4 18 7 21 14 7 14 -6 0 -13 -4 -16 -10z"/>
<path d="M6769 6003 c-13 -16 -12 -17 4 -4 9 7 17 15 17 17 0 8 -8 3 -21 -13z"/>
<path d="M6796 6005 c-3 -8 -1 -15 4 -15 13 0 22 18 11 24 -5 3 -11 -1 -15 -9z"/>
<path d="M6686 6002 c-3 -5 1 -9 9 -9 8 0 12 4 9 9 -3 4 -7 8 -9 8 -2 0 -6 -4
-9 -8z"/>
<path d="M4921 5984 c0 -11 3 -14 6 -6 3 7 2 16 -1 19 -3 4 -6 -2 -5 -13z"/>
<path d="M7398 5993 c-9 -2 -18 -10 -21 -17 -6 -14 50 -10 59 5 3 5 -3 6 -12
2 -12 -4 -15 -3 -10 5 4 7 6 11 4 11 -2 -1 -10 -3 -20 -6z"/>
<path d="M4931 5950 c0 -8 7 -31 15 -50 l14 -35 -6 35 c-7 40 -24 76 -23 50z"/>
<path d="M6503 5903 c0 -9 4 -10 14 -2 7 6 13 12 13 14 0 1 -6 2 -13 2 -8 0
-14 -6 -14 -14z"/>
<path d="M6437 5836 c-20 -15 -22 -27 -4 -23 6 1 11 -5 9 -13 -2 -10 6 -6 22
9 14 14 26 27 26 29 0 3 -3 2 -7 -1 -3 -4 -11 -3 -17 2 -7 6 -18 4 -29 -3z
m27 -17 c-3 -5 -10 -7 -15 -3 -5 3 -7 10 -3 15 3 5 10 7 15 3 5 -3 7 -10 3
-15z"/>
<path d="M6373 5820 c-1 -11 2 -22 6 -24 4 -3 7 4 8 14 1 11 -2 22 -6 24 -4 3
-7 -4 -8 -14z"/>
<path d="M6337 5794 c3 -9 -1 -14 -12 -14 -9 0 -14 -4 -11 -9 4 -5 1 -11 -6
-13 -9 -3 -8 -9 3 -24 22 -30 43 -29 23 1 -9 14 -15 25 -13 26 35 7 40 6 35
-6 -3 -9 0 -12 9 -9 15 6 9 34 -7 34 -5 0 -7 4 -4 9 3 5 -1 11 -9 14 -9 4 -12
1 -8 -9z"/>
<path d="M6260 5793 c0 -5 5 -14 12 -21 6 -6 8 -15 4 -19 -4 -5 -14 0 -21 10
-13 18 -14 18 -27 -2 -14 -23 -30 -29 -22 -8 3 8 -3 20 -13 28 -16 13 -17 12
-5 -3 8 -9 11 -21 8 -26 -3 -6 1 -15 8 -21 10 -8 16 -9 21 -1 3 6 12 7 18 3 7
-4 6 0 -2 10 -9 12 -10 17 -2 17 6 0 14 -7 17 -15 5 -12 10 -13 20 -4 18 15
18 27 -1 45 -8 9 -15 12 -15 7z"/>
<path d="M6410 5780 c-8 -5 -12 -12 -9 -15 4 -3 12 1 19 10 14 17 11 19 -10 5z"/>
<path d="M7335 5742 c-13 -9 -18 -32 -7 -32 4 0 13 5 20 12 21 21 11 38 -13
20z"/>
<path d="M5399 5718 c-3 -30 -5 -35 -20 -51 -13 -12 -19 -13 -30 -4 -7 7 -5 2
5 -10 11 -13 21 -23 24 -23 3 0 3 3 -1 6 -3 3 2 15 12 26 10 10 19 30 19 44 0
25 -7 34 -9 12z"/>
<path d="M5549 5703 c-13 -16 -12 -17 4 -4 9 7 17 15 17 17 0 8 -8 3 -21 -13z"/>
<path d="M5330 5690 c-9 -6 -10 -10 -3 -10 6 0 15 5 18 10 8 12 4 12 -15 0z"/>
<path d="M5430 5691 c0 -6 4 -13 10 -16 6 -3 7 1 4 9 -7 18 -14 21 -14 7z"/>
<path d="M5992 5684 c-7 -8 -8 -14 -3 -14 10 0 25 19 20 25 -2 1 -10 -3 -17
-11z"/>
<path d="M6156 5683 c-6 -14 -5 -15 5 -6 7 7 10 15 7 18 -3 3 -9 -2 -12 -12z"/>
<path d="M5036 5653 c29 -68 139 -273 148 -273 0 0 1 11 1 24 0 13 -3 22 -7
20 -4 -2 -9 0 -13 6 -3 5 -1 10 6 10 8 0 8 4 1 13 -6 6 -11 15 -11 20 0 4 -8
18 -16 31 -9 13 -17 33 -20 45 -2 11 -13 30 -24 43 -12 12 -21 26 -21 30 0 5
-4 7 -9 4 -5 -3 -14 8 -21 24 -7 17 -16 33 -21 36 -5 2 -1 -12 7 -33z m124
-207 c0 -12 -5 -7 -19 24 -11 24 -11 24 3 6 9 -11 16 -24 16 -30z"/>
<path d="M5917 5675 c-4 -8 -3 -16 1 -19 4 -3 9 4 9 15 2 23 -3 25 -10 4z"/>
<path d="M6020 5659 c0 -5 5 -7 10 -4 6 3 10 8 10 11 0 2 -4 4 -10 4 -5 0 -10
-5 -10 -11z"/>
<path d="M5405 5631 c5 -16 4 -21 -4 -17 -18 12 -13 2 10 -18 13 -11 19 -13
16 -4 -2 7 3 21 11 31 15 16 14 17 -2 11 -11 -4 -22 -1 -28 7 -6 10 -7 7 -3
-10z"/>
<path d="M5330 5620 c0 -5 5 -10 10 -10 6 0 10 5 10 10 0 6 -4 10 -10 10 -5 0
-10 -4 -10 -10z"/>
<path d="M5690 5615 c-11 -13 -10 -14 4 -9 9 3 16 10 16 15 0 13 -6 11 -20 -6z"/>
<path d="M5921 5604 c0 -11 3 -14 6 -6 3 7 2 16 -1 19 -3 4 -6 -2 -5 -13z"/>
<path d="M5369 5597 c6 -8 9 -16 6 -19 -3 -3 6 -10 20 -16 31 -14 31 -10 1 22
-24 27 -48 37 -27 13z"/>
<path d="M5712 5594 c-7 -8 -8 -14 -3 -14 10 0 25 19 20 25 -2 1 -10 -3 -17
-11z"/>
<path d="M5989 5593 c-13 -16 -12 -17 4 -4 9 7 17 15 17 17 0 8 -8 3 -21 -13z"/>
<path d="M5645 5569 c-4 -6 -5 -12 -2 -15 2 -3 7 2 10 11 7 17 1 20 -8 4z"/>
<path d="M6201 5564 c0 -11 3 -14 6 -6 3 7 2 16 -1 19 -3 4 -6 -2 -5 -13z"/>
<path d="M5337 5535 c-4 -8 -3 -16 1 -19 4 -3 9 4 9 15 2 23 -3 25 -10 4z"/>
<path d="M5395 5529 c-4 -6 -14 -8 -22 -5 -8 3 -11 1 -8 -4 9 -15 32 -12 39 5
6 17 0 20 -9 4z"/>
<path d="M5424 5499 c-4 -7 -3 -9 4 -5 5 3 13 0 15 -6 4 -9 6 -10 6 -1 1 17
-16 25 -25 12z"/>
<path d="M5465 5490 c4 -6 11 -8 16 -5 14 9 11 15 -7 15 -8 0 -12 -5 -9 -10z"/>
<path d="M5560 5486 c0 -17 16 -30 23 -19 3 5 -1 14 -9 21 -12 10 -14 10 -14
-2z"/>
<path d="M5421 5384 c0 -11 3 -14 6 -6 3 7 2 16 -1 19 -3 4 -6 -2 -5 -13z"/>
<path d="M8100 5750 c0 -5 9 -14 19 -19 14 -8 22 -7 31 4 7 9 10 18 6 22 -3 3
-6 1 -6 -5 0 -7 -5 -12 -11 -12 -5 0 -7 5 -4 10 3 6 -3 10 -14 10 -12 0 -21
-4 -21 -10z"/>
<path d="M8170 5729 c0 -11 4 -18 10 -14 5 3 7 12 3 20 -7 21 -13 19 -13 -6z"/>
<path d="M9206 5697 c3 -10 9 -15 12 -12 3 3 0 11 -7 18 -10 9 -11 8 -5 -6z"/>
<path d="M9195 5660 c-3 -5 -2 -10 4 -10 5 0 13 5 16 10 3 6 2 10 -4 10 -5 0
-13 -4 -16 -10z"/>
<path d="M3950 5604 c0 -8 5 -12 10 -9 6 4 8 11 5 16 -9 14 -15 11 -15 -7z"/>
<path d="M3100 5119 c0 -5 5 -7 10 -4 6 3 10 8 10 11 0 2 -4 4 -10 4 -5 0 -10
-5 -10 -11z"/>
</g>
</svg>

