<?xml version="1.0" encoding="utf-8"?>
<!-- Generator: Adobe Illustrator 28.0.0, SVG Export Plug-In . SVG Version: 6.00 Build 0)  -->
<svg version="1.1" id="Слой_1" xmlns="http://www.w3.org/2000/svg" xmlns:xlink="http://www.w3.org/1999/xlink" x="0px" y="0px"
	 viewBox="0 0 999.9967041 1000" enable-background="new 0 0 999.9967041 1000" xml:space="preserve">
<path fill="#37B4AA" d="M220.1300354,764.9949341c39.2332764,0,76.1293335-15.2813721,103.8762817-43.0064087
	l149.9884033-149.9882202c10.5288391-10.5622559,28.8821106-10.5289917,39.4109192,0l150.5339355,150.5337524
	c27.7469482,27.7359009,64.6430054,43.0064087,103.8875122,43.0064087h29.5505371L607.4212646,955.5076904
	c-59.3341064,59.3230591-155.5201416,59.3230591-214.8542786,0L202.0658112,764.9949341H220.1300354z"/>
<path fill="#37B4AA" d="M767.822998,234.4566193c-39.2336426,0-76.1296997,15.2817078-103.8766479,43.0065765
	L513.4124756,428.0302124c-10.8406677,10.8406372-28.548584,10.8851318-39.4116211-0.0112L324.0131226,278.0086975
	c-27.7472839-27.724884-64.6433716-43.0065918-103.8878479-43.0065918h-18.0638733L392.5737915,44.5005798
	c59.3232422-59.3341064,155.5201416-59.3341064,214.8427124,0l189.9563599,189.9560394H767.822998z"/>
<path fill="#37B4AA" d="M44.4924278,392.5775452l113.4703674-113.4705505h62.1723328
	c27.0570831,0,53.5466003,10.9741211,72.6681824,30.1067505l149.9880676,149.9882202
	c14.0348206,14.0349731,32.4770813,21.0579834,50.9084778,21.0579834c18.4429626,0,36.8627625-7.0230103,50.8976135-21.0357361
	L695.1537476,308.668396c19.1209106-19.1326294,45.5995483-30.1067505,72.6678467-30.1067505l73.6474609-0.0112
	l114.0270996,114.0270996c59.3341064,59.3230591,59.3341064,155.519928,0,214.8429871L841.4799194,721.4365845h-73.6583252
	c-27.0682983,0-53.546936-10.9743042-72.6678467-30.1067505L544.6090088,540.7961426
	c-27.2021484-27.1795654-74.6379089-27.2017822-101.817627,0.0111694L292.8033142,690.7843628
	c-19.121582,19.1326294-45.6110992,30.1067505-72.6681824,30.1067505h-62.1723328L44.4924278,607.4205322
	C-14.8308096,548.0974731-14.8308096,451.9006042,44.4924278,392.5775452"/>
</svg>
